<svg t="1660790363910" class="icon" viewBox="0 0 1024 1024" version="1.1" xmlns="http://www.w3.org/2000/svg" p-id="8641" width="32" height="32"><path d="M506.624 64C739.264 64 928 250.144 928 480c0 111.168-44.16 212.096-116.032 286.688l138.656 138.688a32 32 0 0 1-42.24 47.904l-3.008-2.656-141.28-141.28A423.04 423.04 0 0 1 506.624 896c-155.904 0-296.864-84.352-370.176-217.12a32 32 0 1 1 56-30.944C254.624 760.448 374.208 832 506.656 832 704.096 832 864 674.304 864 480S704.096 128 506.624 128c-135.584 0-257.504 75.008-318.24 191.68a32 32 0 1 1-56.768-29.536C203.296 152.416 347.04 64 506.656 64z m21.12 201.792l2.176 2.976 75.456 115.04a32 32 0 0 1-51.296 38.08l-2.24-2.976-32.16-49.056-48.32 251.904c-5.376 28.032-41.44 35.04-57.312 12.8l-2.048-3.2-89.824-160.512-26.24 54.944a32 32 0 0 1-24.8 17.92L267.072 544H96a32 32 0 0 1-3.744-63.776L96 480h150.88l44.224-92.448a32 32 0 0 1 54.528-5.376l2.272 3.552 77.12 137.824 46.72-243.264c5.152-27.008 39.232-34.88 56-14.496z" p-id="8642"></path></svg>