<svg t="1660880627749" class="icon" viewBox="0 0 1024 1024" version="1.1" xmlns="http://www.w3.org/2000/svg" p-id="83698" width="32" height="32"><path d="M512 853.994667q140.010667 0 241.002667-100.992t100.992-241.002667-100.992-241.002667-241.002667-100.992-241.002667 100.992-100.992 241.002667 100.992 241.002667 241.002667 100.992zM512 85.994667q176 0 300.992 124.992t124.992 300.992-124.992 300.992-300.992 124.992-300.992-124.992-124.992-300.992 124.992-300.992 300.992-124.992zM469.994667 298.005333l84.010667 0 0 256-84.010667 0 0-256zM469.994667 640l84.010667 0 0 85.994667-84.010667 0 0-85.994667z" p-id="83699"></path></svg>