<svg t="1660891735014" class="icon" viewBox="0 0 1025 1024" version="1.1" xmlns="http://www.w3.org/2000/svg" p-id="10194" width="32" height="32"><path d="M513.26391 344.4c-25.6 0-46.55 20.95-46.55 46.55l23.27 256.02c0 13.96 9.31 23.27 23.27 23.27 13.97 0 23.28-9.31 23.28-23.27l23.27-256.02c0.01-25.6-20.94-46.55-46.54-46.55z m0 372.39c-25.6 0-46.55 20.95-46.55 46.55 0 25.6 20.95 46.55 46.55 46.55 25.6 0 46.55-20.95 46.55-46.55 0-25.6-20.95-46.55-46.55-46.55z m504.2 152.39L564.66391 96.36c-23.18-39.56-80.36-39.56-103.54 0L8.32391 869.18c-23.44 40 5.41 90.33 51.77 90.33h905.61c46.35 0 75.2-50.33 51.76-90.33zM890.64391 885H134.88391c-23.18 0-37.6-25.17-25.88-45.17l377.88-644.94c11.59-19.78 40.18-19.78 51.77 0l377.88 644.94c11.71 20-2.71 45.17-25.89 45.17z" p-id="10195"></path></svg>