<?xml version="1.0" encoding="utf-8"?>
<!-- Generator: Adobe Illustrator 24.2.0, SVG Export Plug-In . SVG Version: 6.00 Build 0)  -->
<svg version="1.1" id="图层_1" xmlns="http://www.w3.org/2000/svg" xmlns:xlink="http://www.w3.org/1999/xlink" x="0px" y="0px"
	 viewBox="0 0 700 700" style="enable-background:new 0 0 700 700;" xml:space="preserve">
<style type="text/css">
	.st0{fill:#7BBDFF;}
	.st1{fill:#DAEBFF;}
	.st2{fill:#054AA9;}
	.st3{fill:none;stroke:#DE4D30;stroke-width:0.4287;stroke-linecap:round;stroke-linejoin:round;stroke-miterlimit:10;}
	.st4{fill:#FFAB00;}
	.st5{fill:#EBF5FF;}
	.st6{fill:#D3E2F9;}
	.st7{fill:#B0D8FF;}
	.st8{fill:none;}
	.st9{fill-rule:evenodd;clip-rule:evenodd;fill:#DAEBFF;}
	.st10{fill-rule:evenodd;clip-rule:evenodd;fill:#B0D8FF;}
	.st11{fill:#006DFE;}
	.st12{fill:url(#SVGID_1_);}
	.st13{fill:#FFFFFF;}
	.st14{fill:#7BBAFF;}
	.st15{fill:none;stroke:#7BBAFF;stroke-width:1.2862;stroke-linecap:round;stroke-linejoin:round;stroke-miterlimit:10;}
	.st16{fill:#4385F5;}
	.st17{fill:#2838AD;}
	.st18{fill:#2C357C;}
	.st19{fill:#191E56;}
	.st20{fill:#0542BF;}
	.st21{fill:#FFACA6;}
	.st22{fill:#EA756C;}
	.st23{clip-path:url(#SVGID_3_);fill:#0B2551;}
	.st24{clip-path:url(#SVGID_5_);fill:#EA756C;}
	.st25{fill:#FE8E00;}
	.st26{clip-path:url(#SVGID_7_);fill:#0E2760;}
	.st27{clip-path:url(#SVGID_9_);fill:#FE8E00;}
	.st28{clip-path:url(#SVGID_11_);fill:#0E58DD;}
	.st29{fill:#00B77B;}
	.st30{fill:#00D967;}
	.st31{fill:none;stroke:#FFFFFF;stroke-width:0.4287;stroke-linecap:round;stroke-linejoin:round;stroke-miterlimit:10;}
	.st32{fill:#053DA0;}
	.st33{fill:#172272;}
	.st34{fill:#1E2889;}
	.st35{fill:#293272;}
</style>
<g>
	<g>
		<circle class="st0" cx="50.5" cy="224.6" r="48"/>
		<circle class="st1" cx="50.5" cy="224.6" r="44"/>
		<path class="st2" d="M50.5,226c-0.3,0-0.7-0.1-0.9-0.4l-23.9-21.7c-0.6-0.5-0.6-1.4-0.1-1.9c0.5-0.6,1.4-0.6,1.9-0.1l23,20.9
			l17.7-15.4c0.6-0.5,1.4-0.4,1.9,0.1c0.5,0.6,0.4,1.4-0.1,1.9l-18.6,16.2C51.2,225.9,50.8,226,50.5,226z"/>
		<rect x="49" y="258.3" class="st2" width="2.9" height="7.6"/>
		<rect x="49" y="183.4" class="st2" width="2.9" height="7.6"/>
		
			<rect x="11.6" y="220.8" transform="matrix(-1.836970e-16 1 -1 -1.836970e-16 237.6485 211.5877)" class="st2" width="2.9" height="7.6"/>
		
			<rect x="86.5" y="220.8" transform="matrix(-1.836970e-16 1 -1 -1.836970e-16 312.5121 136.724)" class="st2" width="2.9" height="7.6"/>
		<line class="st3" x1="50.5" y1="225.5" x2="62.2" y2="260.5"/>
		<circle class="st0" cx="50.5" cy="224.6" r="5.1"/>
		<circle class="st4" cx="50.5" cy="224.6" r="3"/>
	</g>
	<rect x="5.2" y="433" class="st1" width="35.2" height="15.6"/>
	<rect x="19.5" y="448.5" class="st5" width="35.2" height="15.6"/>
	<ellipse class="st5" cx="138.8" cy="552.6" rx="55.9" ry="11.5"/>
	<ellipse class="st5" cx="535.2" cy="542" rx="94.8" ry="11.5"/>
	<ellipse class="st5" cx="237.5" cy="543.5" rx="47.1" ry="14.5"/>
	<rect x="1" y="513.9" class="st6" width="683.9" height="3.9"/>
	<g>
		<rect x="537.2" y="151.5" class="st7" width="133.1" height="191.7"/>
		<rect x="539.6" y="153.8" class="st5" width="129.1" height="186.7"/>
		<polygon class="st1" points="668.7,246.9 605,246.9 605,153.8 602.1,153.8 602.1,246.9 539.6,246.9 539.6,250.4 602.1,250.4 
			602.1,340.5 605,340.5 605,250.4 668.7,250.4 		"/>
		<rect x="572.1" y="200.7" class="st8" width="63.9" height="93.1"/>
		<path class="st1" d="M637.5,200.7h31.2V199h-31.2v-45.2H636V199h-63.9v-45.2h-1.4V199h-31.1v1.7h31.1v93h-31.1v1.7h31.1v45h1.4
			v-45H636v45h1.4v-45h31.2v-1.7h-31.2V200.7z M636,293.8h-63.9v-93H636V293.8z"/>
		<path class="st1" d="M603.3,153.8c0,0-14.3,70.4-63.7,82.3c0,0,10.7,56.9,10.7,104.4l-10.7,0V153.8H603.3z"/>
		<path class="st1" d="M605,153.8c0,0,14.3,70.4,63.7,82.3c0,0-10.7,56.9-10.7,104.4l10.7,0V153.8H605z"/>
	</g>
	<g>
		<g>
			<g>
				<g>
					<g>
						<g>
							<path class="st9" d="M450.8,482.9c-0.7-1.5-1.3-3-2-4.4c-0.3-0.5-1.1-1-1.5-0.9c-1,0.1-2.5-0.6-2.9,1.1
								c-0.3,1.1-0.7,2.1-0.8,3.2c-0.2,1.2-0.8,1.7-2,1.5c-0.7-0.1-1.5-0.2-2.4-0.3c-0.1-1.7-0.2-3.3-0.4-4.8
								c-0.1-0.5-0.7-1.1-1.3-1.3c-0.9-0.3-2-1.2-2.9,0.1c-0.6,1-1.4,1.9-1.9,2.9c-0.5,0.8-1,1-1.9,0.6c-3.1-1.5-2.5-0.8-1.9-3.8
								c0.1-0.3,0.2-0.6,0.3-1c0.4-1.7-0.8-3.5-2.5-3.7c-0.4,0-0.8,0.3-1.1,0.5c-0.6,0.4-1.1,0.9-1.7,1.3c-0.6,0.4-1.1,0.9-1.9,1.4
								c-0.8-0.7-1.7-1.4-2.4-2.2c-0.2-0.3-0.2-1,0-1.4c0.3-0.7,0.8-1.4,1.3-2.1c1.2-2,1.1-2.9-0.7-4.4c-0.3-0.2-0.8-0.3-1.2-0.2
								c-0.4,0-0.8,0.3-1.3,0.4c-3.5,1.2-3.5,1.2-5.1-2.4c1.2-0.9,2.3-1.9,3.5-2.8c1-0.7,0.7-1.4,0.3-2.1c-0.4-0.9-0.2-2.2-1.8-2.2
								c-1.5,0-2.9-0.1-4.5-0.1c-0.2-1.3-0.5-2.6-0.7-3.9c1.3-0.5,2.4-1,3.7-1.2c2.1-0.4,1.5-1.9,1.7-3.1c0.2-1.4-0.8-1.6-1.7-1.9
								c-1.1-0.4-2.2-0.8-3.2-1.2c-0.1-0.3-0.2-0.3-0.1-0.4c0.3-3.6,0.3-3.6,3.9-3.8c2.1-0.1,3-0.9,3.2-3c0-0.4-0.3-0.9-0.6-1.2
								c-1-0.9-2.1-1.8-3.1-2.6c0-0.1,0-0.3,0-0.4c1.8-4,1.1-3.5,4.9-2.3c1.3,0.4,2.1,0.4,2.9-0.8c0.8-1.2,1.5-2.1,0.3-3.4
								c-0.7-0.8-1.2-1.8-1.7-2.7c0.1-0.2,0.1-0.3,0.2-0.4c2.5-2.5,2.6-2.6,5.4-0.4c1.5,1.2,2.4,0.3,3.6-0.3
								c1.3-0.7,1.1-1.6,0.8-2.6c-0.3-1.1-0.5-2.1-0.8-3.4c1.2-0.6,2.4-1.1,3.6-1.7c0.8,1.2,1.6,2.3,2.3,3.5c0.5,0.8,1.1,1,1.9,0.6
								c1-0.5,2.6,0.1,2.7-1.8c0.1-1.4,0.3-2.7,0.5-4.2c1.3-0.1,2.5-0.3,3.9-0.4c0.4,1.3,0.8,2.5,1,3.8c0.2,1.1,0.7,1.6,1.9,1.6
								c1.2,0,2.6,0.6,3-1.3c0-0.1,0-0.1,0.1-0.2c1.5-3.4,1.5-3.4,5.4-2.4c-0.1,1.3-0.1,2.8-0.2,4.1c-0.2,1.9,1.5,1.6,2.4,2.2
								c0.7,0.5,1.4,0.6,2.1-0.3c0.8-1,1.8-1.9,2.8-3c0.9,0.5,1.8,1,2.6,1.6c0.3,0.2,0.4,0.9,0.3,1.2c-0.3,0.9-0.7,1.9-1.2,2.7
								c-0.6,1-0.3,1.7,0.5,2.6c1.3,1.5,2.5,1.8,4.1,0.6c0.8-0.6,1.7-0.9,2.5-1.4c0.2,0.1,0.2,0.1,0.3,0.1c2.5,2.6,2.5,2.6,0.1,5.3
								c-1.5,1.7-1.5,3.1,0.1,4.7c0.3,0.3,0.9,0.3,1.3,0.3c1.4-0.2,2.8-0.4,4.3-0.6c0.4,1.2,0.8,2.4,1.3,3.7
								c-1.2,0.7-2.5,1.4-3.8,2.1c-0.8,0.4-1.1,0.8-0.9,1.8c0.5,2.7,0.4,2.7,3.2,3.3c1,0.2,1.9,0.4,3,0.6c0,1.3,0,2.5,0,3.8
								c-1.5,0.3-3,0.7-4.5,0.8c-1.8,0.2-1.2,1.8-1.6,2.8c-0.4,0.9-0.1,1.5,0.9,2c1.3,0.6,2.5,1.4,3.7,2c0.1,0.2,0.1,0.3,0.1,0.4
								c-0.7,3.4-0.7,3.3-4,2.9c-1.3-0.2-2.6-0.9-3.7,1c-0.9,1.6-1.1,2.6,0.4,3.7c0.3,0.3,0.6,0.6,0.9,1c1.6,1.8,1.5,1.7,0.1,3.6
								c-0.7,0.9-1.3,1.3-2.3,0.5c-0.6-0.4-1.3-0.6-1.9-1c-1.4-1.1-2.4-1-3.7,0.3c-1,0.9-1.2,1.7-0.6,2.8c0.3,0.5,0.5,1.1,0.7,1.7
								c1,2.4,0.9,2.6-1.5,3.8c-0.4,0.2-1.1,0.1-1.4-0.2c-0.7-0.5-1.2-1.2-1.8-1.9c-1.5-1.6-3.1-1.8-4.7-0.4
								c-0.3,0.2-0.4,0.8-0.3,1.1c0,1.2,0.1,2.3,0.3,3.4c0.2,1.1-0.2,1.6-1.2,1.8C452.5,482.4,451.7,482.7,450.8,482.9z
								 M426.1,439.9c-4.6,9.9-0.2,22.1,9.7,26.7c10.2,4.7,22.4,0.1,27.2-10.1c4.6-9.9,0-22.1-10.1-26.8
								C442.8,425.1,430.8,429.6,426.1,439.9z"/>
						</g>
					</g>
					<g>
						<g>
							<path class="st9" d="M437.3,464.1c-8.9-4-12.7-14.1-8.7-23.1c3.9-8.9,14.2-12.8,23.1-8.8c8.7,3.9,12.7,14.4,8.9,23
								C456.6,464.1,446.2,468,437.3,464.1z M451.6,451.4c1.8-4.1,0-8.9-4.1-10.6c-4-1.7-8.8,0.2-10.6,4.3c-1.8,4,0.1,8.7,4.2,10.4
								C445.1,457.3,449.8,455.5,451.6,451.4z"/>
						</g>
					</g>
				</g>
				<g>
					<g>
						<path class="st9" d="M325.5,426.5c0.2,0.1,0.3,0.3,0.2,0.6c-0.3,1.6-0.5,3.2-0.8,4.8c0,0.3-0.2,0.4-0.4,0.5
							c-2.4,0.7-4.8,1.4-7.2,2.1c-0.2,0.1-0.4,0.1-0.6,0.2c0.4,4.1,0.8,8.2,1.3,12.3c1.6,0.1,3.2,0.3,4.7,0.4
							c1.1,0.1,2.3,0.2,3.4,0.3c0.3,0,0.4,0.1,0.5,0.4c0.6,1.5,1.1,3,1.7,4.5c0.1,0.3,0.1,0.5-0.1,0.7c-1.8,1.8-3.5,3.7-5.2,5.5
							c-0.3,0.3-0.3,0.4-0.1,0.8c2.3,3.1,4.5,6.2,6.8,9.3c0.1,0.1,0.1,0.2,0.2,0.3c0.4-0.2,0.9-0.4,1.3-0.6c2-0.9,4-1.9,6-2.9
							c0.3-0.2,0.5-0.1,0.7,0.1c1.2,1,2.4,2,3.6,3c0.1,0.1,0.3,0.4,0.3,0.5c-0.6,2.6-1.2,5.1-1.8,7.6l11.4,5.1
							c0.4-0.6,0.8-1.1,1.2-1.7c1.1-1.6,2.2-3.1,3.3-4.7c0.2-0.3,0.3-0.3,0.6-0.2c1.6,0.3,3.1,0.5,4.7,0.8c0.3,0,0.5,0.2,0.6,0.5
							c0.7,2.4,1.4,4.8,2.1,7.3c0,0.2,0.1,0.3,0.2,0.5c4.1-0.4,8.2-0.8,12.3-1.3c0-0.2,0-0.3,0.1-0.5c0.2-2.5,0.4-5,0.6-7.5
							c0-0.3,0.1-0.5,0.5-0.6c1.5-0.5,2.9-1.1,4.4-1.7c0.3-0.1,0.5-0.1,0.7,0.1c1.8,1.8,3.7,3.5,5.5,5.3c0.2,0.2,0.3,0.3,0.6,0.1
							c3.2-2.3,6.4-4.7,9.7-7c0,0,0,0,0.1-0.1c-0.3-0.5-0.5-1.1-0.8-1.7c-0.9-1.9-1.8-3.7-2.7-5.6c-0.1-0.3-0.1-0.5,0.1-0.7
							c1-1.2,2-2.5,3-3.7c0.2-0.2,0.3-0.3,0.6-0.2c2.5,0.6,5,1.2,7.5,1.8c0.1,0,0.3,0,0.4,0.1l5-11.3c-1.7-1.2-3.4-2.3-5-3.5
							c-0.6-0.4-1.1-0.8-1.7-1.1c-0.2-0.1-0.3-0.3-0.2-0.6c0.3-1.6,0.5-3.2,0.8-4.8c0-0.3,0.2-0.4,0.4-0.5c2.4-0.7,4.8-1.4,7.2-2.1
							c0.2-0.1,0.4-0.1,0.6-0.2c-0.4-4.1-0.8-8.2-1.3-12.3c-1.1-0.1-2.2-0.2-3.3-0.3c-1.6-0.1-3.2-0.3-4.8-0.4
							c-0.3,0-0.4-0.1-0.5-0.4c-0.6-1.5-1.1-3.1-1.8-4.6c-0.1-0.3,0-0.4,0.2-0.6c1.7-1.8,3.5-3.7,5.2-5.5c0.3-0.3,0.3-0.4,0.1-0.8
							c-2.2-3.1-4.5-6.1-6.7-9.2c-0.1-0.1-0.2-0.3-0.3-0.4c-1.3,0.6-2.6,1.2-3.9,1.8c-1.2,0.6-2.3,1.1-3.5,1.7
							c-0.3,0.1-0.4,0.1-0.6-0.1c-1.2-1-2.5-2-3.7-3c-0.2-0.2-0.3-0.4-0.2-0.6c0.6-2.5,1.2-5,1.8-7.5c0-0.1,0-0.3,0.1-0.4l-11.3-5
							c-1.3,1.8-2.5,3.6-3.8,5.4c-0.3,0.4-0.6,0.8-0.8,1.2c-0.2,0.3-0.3,0.3-0.6,0.3c-1.6-0.3-3.1-0.5-4.7-0.8
							c-0.4-0.1-0.5-0.2-0.6-0.5c-0.7-2.5-1.4-4.9-2.2-7.4c0-0.1-0.1-0.2-0.1-0.3c-4.1,0.4-8.2,0.8-12.3,1.3
							c-0.1,0.9-0.1,1.8-0.2,2.7c-0.1,1.8-0.3,3.6-0.4,5.4c0,0.3-0.1,0.4-0.4,0.5c-1.5,0.5-3,1.1-4.4,1.7c-0.3,0.1-0.5,0.1-0.7-0.1
							c-1.8-1.7-3.6-3.5-5.5-5.2c-0.3-0.3-0.4-0.3-0.8-0.1c-3.1,2.3-6.2,4.5-9.3,6.7c-0.1,0.1-0.2,0.2-0.4,0.3
							c0.6,1.3,1.2,2.6,1.8,3.9c0.5,1.1,1.1,2.3,1.6,3.4c0.1,0.3,0.1,0.5-0.1,0.7c-1,1.2-2,2.5-3,3.7c-0.2,0.2-0.3,0.3-0.6,0.2
							c-2.5-0.6-5-1.2-7.5-1.8c-0.1,0-0.3,0-0.4-0.1l-5,11.3c1.7,1.2,3.4,2.3,5.1,3.5C324.4,425.7,324.9,426.1,325.5,426.5z
							 M376.7,410.2c14.2,6.3,20.5,23,14.1,37.2c-6.3,14.1-23,20.5-37.1,14.1c-14.2-6.3-20.5-23-14.2-37.2
							C345.9,410.2,362.6,403.9,376.7,410.2z"/>
					</g>
				</g>
			</g>
		</g>
		<g>
			<g>
				<g>
					<g>
						<g>
							<path class="st10" d="M448.8,482.5c-0.7-1.5-1.3-3-2-4.4c-0.3-0.5-1.1-1-1.5-0.9c-1,0.1-2.5-0.6-2.9,1.1
								c-0.3,1.1-0.7,2.1-0.8,3.2c-0.2,1.2-0.8,1.7-2,1.5c-0.7-0.1-1.5-0.2-2.4-0.3c-0.1-1.7-0.2-3.3-0.4-4.8
								c-0.1-0.5-0.7-1.1-1.3-1.3c-0.9-0.3-2-1.2-2.9,0.1c-0.6,1-1.4,1.9-1.9,2.9c-0.5,0.8-1,1-1.9,0.6c-3.1-1.5-2.5-0.8-1.9-3.8
								c0.1-0.3,0.2-0.6,0.3-1c0.4-1.7-0.8-3.5-2.5-3.7c-0.4,0-0.8,0.3-1.1,0.5c-0.6,0.4-1.1,0.9-1.7,1.3c-0.6,0.4-1.1,0.9-1.9,1.4
								c-0.8-0.7-1.7-1.4-2.4-2.2c-0.2-0.3-0.2-1,0-1.4c0.3-0.7,0.8-1.4,1.3-2.1c1.2-2,1.1-2.9-0.7-4.4c-0.3-0.2-0.8-0.3-1.2-0.2
								c-0.4,0-0.8,0.3-1.3,0.4c-3.5,1.2-3.5,1.2-5.1-2.4c1.2-0.9,2.3-1.9,3.5-2.8c1-0.7,0.7-1.4,0.3-2.1c-0.4-0.9-0.2-2.2-1.8-2.2
								c-1.5,0-2.9-0.1-4.5-0.1c-0.2-1.3-0.5-2.6-0.7-3.9c1.3-0.5,2.4-1,3.7-1.2c2.1-0.4,1.5-1.9,1.7-3.1c0.2-1.4-0.8-1.6-1.7-1.9
								c-1.1-0.4-2.2-0.8-3.2-1.2c-0.1-0.3-0.2-0.3-0.1-0.4c0.3-3.6,0.3-3.6,3.9-3.8c2.1-0.1,3-0.9,3.2-3c0-0.4-0.3-0.9-0.6-1.2
								c-1-0.9-2.1-1.8-3.1-2.6c0-0.1,0-0.3,0-0.4c1.8-4,1.1-3.5,4.9-2.3c1.3,0.4,2.1,0.4,2.9-0.8c0.8-1.2,1.5-2.1,0.3-3.4
								c-0.7-0.8-1.2-1.8-1.7-2.7c0.1-0.2,0.1-0.3,0.2-0.4c2.5-2.5,2.6-2.6,5.4-0.4c1.5,1.2,2.4,0.3,3.6-0.3
								c1.3-0.7,1.1-1.6,0.8-2.6c-0.3-1.1-0.5-2.1-0.8-3.4c1.2-0.6,2.4-1.1,3.6-1.7c0.8,1.2,1.6,2.3,2.3,3.5c0.5,0.8,1.1,1,1.9,0.6
								c1-0.5,2.6,0.1,2.7-1.8c0.1-1.4,0.3-2.7,0.5-4.2c1.3-0.1,2.5-0.3,3.9-0.4c0.4,1.3,0.8,2.5,1,3.8c0.2,1.1,0.7,1.6,1.9,1.6
								c1.2,0,2.6,0.6,3-1.3c0-0.1,0-0.1,0.1-0.2c1.5-3.4,1.5-3.4,5.4-2.4c-0.1,1.3-0.1,2.8-0.2,4.1c-0.2,1.9,1.5,1.6,2.4,2.2
								c0.7,0.5,1.4,0.6,2.1-0.3c0.8-1,1.8-1.9,2.8-3c0.9,0.5,1.8,1,2.6,1.6c0.3,0.2,0.4,0.9,0.3,1.2c-0.3,0.9-0.7,1.9-1.2,2.7
								c-0.6,1-0.3,1.7,0.5,2.6c1.3,1.5,2.5,1.8,4.1,0.6c0.8-0.6,1.7-0.9,2.5-1.4c0.2,0.1,0.2,0.1,0.3,0.1c2.5,2.6,2.5,2.6,0.1,5.3
								c-1.5,1.7-1.5,3.1,0.1,4.7c0.3,0.3,0.9,0.3,1.3,0.3c1.4-0.2,2.8-0.4,4.3-0.6c0.4,1.2,0.8,2.4,1.3,3.7
								c-1.2,0.7-2.5,1.4-3.8,2.1c-0.8,0.4-1.1,0.8-0.9,1.8c0.5,2.7,0.4,2.7,3.2,3.3c1,0.2,1.9,0.4,3,0.6c0,1.3,0,2.5,0,3.8
								c-1.5,0.3-3,0.7-4.5,0.8c-1.8,0.2-1.2,1.8-1.6,2.8c-0.4,0.9-0.1,1.5,0.9,2c1.3,0.6,2.5,1.4,3.7,2c0.1,0.2,0.1,0.3,0.1,0.4
								c-0.7,3.4-0.7,3.3-4,2.9c-1.3-0.2-2.6-0.9-3.7,1c-0.9,1.6-1.1,2.6,0.4,3.7c0.3,0.3,0.6,0.6,0.9,1c1.6,1.8,1.5,1.7,0.1,3.6
								c-0.7,0.9-1.3,1.3-2.3,0.5c-0.6-0.4-1.3-0.6-1.9-1c-1.4-1.1-2.4-1-3.7,0.3c-1,0.9-1.2,1.7-0.6,2.8c0.3,0.5,0.5,1.1,0.7,1.7
								c1,2.4,0.9,2.6-1.5,3.8c-0.4,0.2-1.1,0.1-1.4-0.2c-0.7-0.5-1.2-1.2-1.8-1.9c-1.5-1.6-3.1-1.8-4.7-0.4
								c-0.3,0.2-0.4,0.8-0.3,1.1c0,1.2,0.1,2.3,0.3,3.4c0.2,1.1-0.2,1.6-1.2,1.8C450.5,482,449.7,482.2,448.8,482.5z M424.1,439.5
								c-4.6,9.9-0.2,22.1,9.7,26.7c10.2,4.7,22.4,0.1,27.2-10.1c4.6-9.9,0-22.1-10.1-26.8C440.8,424.7,428.8,429.2,424.1,439.5z"/>
						</g>
					</g>
					<g>
						<g>
							<path class="st10" d="M435.3,463.6c-8.9-4-12.7-14.1-8.7-23.1c3.9-8.9,14.2-12.8,23.1-8.8c8.7,3.9,12.7,14.4,8.9,23
								C454.6,463.6,444.2,467.6,435.3,463.6z M449.6,451c1.8-4.1,0-8.9-4.1-10.6c-4-1.7-8.8,0.2-10.6,4.3c-1.8,4,0.1,8.7,4.2,10.4
								C443.1,456.8,447.8,455,449.6,451z"/>
						</g>
					</g>
				</g>
				<g>
					<g>
						<path class="st10" d="M323.5,426c0.2,0.1,0.3,0.3,0.2,0.6c-0.3,1.6-0.5,3.2-0.8,4.8c0,0.3-0.2,0.4-0.4,0.5
							c-2.4,0.7-4.8,1.4-7.2,2.1c-0.2,0.1-0.4,0.1-0.6,0.2c0.4,4.1,0.8,8.2,1.3,12.3c1.6,0.1,3.2,0.3,4.7,0.4
							c1.1,0.1,2.3,0.2,3.4,0.3c0.3,0,0.4,0.1,0.5,0.4c0.6,1.5,1.1,3,1.7,4.5c0.1,0.3,0.1,0.5-0.1,0.7c-1.8,1.8-3.5,3.7-5.2,5.5
							c-0.3,0.3-0.3,0.4-0.1,0.8c2.3,3.1,4.5,6.2,6.8,9.3c0.1,0.1,0.1,0.2,0.2,0.3c0.4-0.2,0.9-0.4,1.3-0.6c2-0.9,4-1.9,6-2.9
							c0.3-0.2,0.5-0.1,0.7,0.1c1.2,1,2.4,2,3.6,3c0.1,0.1,0.3,0.4,0.3,0.5c-0.6,2.6-1.2,5.1-1.8,7.6l11.4,5.1
							c0.4-0.6,0.8-1.1,1.2-1.7c1.1-1.6,2.2-3.1,3.3-4.7c0.2-0.3,0.3-0.3,0.6-0.2c1.6,0.3,3.1,0.5,4.7,0.8c0.3,0,0.5,0.2,0.6,0.5
							c0.7,2.4,1.4,4.8,2.1,7.3c0,0.2,0.1,0.3,0.2,0.5c4.1-0.4,8.2-0.8,12.3-1.3c0-0.2,0-0.3,0.1-0.5c0.2-2.5,0.4-5,0.6-7.5
							c0-0.3,0.1-0.5,0.5-0.6c1.5-0.5,2.9-1.1,4.4-1.7c0.3-0.1,0.5-0.1,0.7,0.1c1.8,1.8,3.7,3.5,5.5,5.3c0.2,0.2,0.3,0.3,0.6,0.1
							c3.2-2.3,6.4-4.7,9.7-7c0,0,0,0,0.1-0.1c-0.3-0.5-0.5-1.1-0.8-1.7c-0.9-1.9-1.8-3.7-2.7-5.6c-0.1-0.3-0.1-0.5,0.1-0.7
							c1-1.2,2-2.5,3-3.7c0.2-0.2,0.3-0.3,0.6-0.2c2.5,0.6,5,1.2,7.5,1.8c0.1,0,0.3,0,0.4,0.1l5-11.3c-1.7-1.2-3.4-2.3-5-3.5
							c-0.6-0.4-1.1-0.8-1.7-1.1c-0.2-0.1-0.3-0.3-0.2-0.6c0.3-1.6,0.5-3.2,0.8-4.8c0-0.3,0.2-0.4,0.4-0.5c2.4-0.7,4.8-1.4,7.2-2.1
							c0.2-0.1,0.4-0.1,0.6-0.2c-0.4-4.1-0.8-8.2-1.3-12.3c-1.1-0.1-2.2-0.2-3.3-0.3c-1.6-0.1-3.2-0.3-4.8-0.4
							c-0.3,0-0.4-0.1-0.5-0.4c-0.6-1.5-1.1-3.1-1.8-4.6c-0.1-0.3,0-0.4,0.2-0.6c1.7-1.8,3.5-3.7,5.2-5.5c0.3-0.3,0.3-0.4,0.1-0.8
							c-2.2-3.1-4.5-6.1-6.7-9.2c-0.1-0.1-0.2-0.3-0.3-0.4c-1.3,0.6-2.6,1.2-3.9,1.8c-1.2,0.6-2.3,1.1-3.5,1.7
							c-0.3,0.1-0.4,0.1-0.6-0.1c-1.2-1-2.5-2-3.7-3c-0.2-0.2-0.3-0.4-0.2-0.6c0.6-2.5,1.2-5,1.8-7.5c0-0.1,0-0.3,0.1-0.4l-11.3-5
							c-1.3,1.8-2.5,3.6-3.8,5.4c-0.3,0.4-0.6,0.8-0.8,1.2c-0.2,0.3-0.3,0.3-0.6,0.3c-1.6-0.3-3.1-0.5-4.7-0.8
							c-0.4-0.1-0.5-0.2-0.6-0.5c-0.7-2.5-1.4-4.9-2.2-7.4c0-0.1-0.1-0.2-0.1-0.3c-4.1,0.4-8.2,0.8-12.3,1.3
							c-0.1,0.9-0.1,1.8-0.2,2.7c-0.1,1.8-0.3,3.6-0.4,5.4c0,0.3-0.1,0.4-0.4,0.5c-1.5,0.5-3,1.1-4.4,1.7c-0.3,0.1-0.5,0.1-0.7-0.1
							c-1.8-1.7-3.6-3.5-5.5-5.2c-0.3-0.3-0.4-0.3-0.8-0.1c-3.1,2.3-6.2,4.5-9.3,6.7c-0.1,0.1-0.2,0.2-0.4,0.3
							c0.6,1.3,1.2,2.6,1.8,3.9c0.5,1.1,1.1,2.3,1.6,3.4c0.1,0.3,0.1,0.5-0.1,0.7c-1,1.2-2,2.5-3,3.7c-0.2,0.2-0.3,0.3-0.6,0.2
							c-2.5-0.6-5-1.2-7.5-1.8c-0.1,0-0.3,0-0.4-0.1l-5,11.3c1.7,1.2,3.4,2.3,5.1,3.5C322.4,425.3,322.9,425.7,323.5,426z
							 M374.7,409.7c14.2,6.3,20.5,23,14.1,37.2c-6.3,14.1-23,20.5-37.1,14.1c-14.2-6.3-20.5-23-14.2-37.2
							C343.9,409.8,360.6,403.4,374.7,409.7z"/>
					</g>
				</g>
			</g>
		</g>
	</g>
	<path class="st11" d="M512.2,416H147.5c-4.7,0-8.4-3.8-8.4-8.4V144.3c0-4.7,3.8-8.4,8.4-8.4h364.7c4.7,0,8.4,3.8,8.4,8.4v263.2
		C520.6,412.2,516.9,416,512.2,416z"/>
	<linearGradient id="SVGID_1_" gradientUnits="userSpaceOnUse" x1="151.1326" y1="275.9262" x2="508.585" y2="275.9262">
		<stop  offset="0" style="stop-color:#B0D8FF"/>
		<stop  offset="1.537955e-02" style="stop-color:#B3D9FF"/>
		<stop  offset="0.145" style="stop-color:#C4E1FF"/>
		<stop  offset="0.3014" style="stop-color:#D1E7FF"/>
		<stop  offset="0.5117" style="stop-color:#D8EAFF"/>
		<stop  offset="1" style="stop-color:#DAEBFF"/>
	</linearGradient>
	<path class="st12" d="M500.8,404.3H158.9c-4.3,0-7.8-3.5-7.8-7.8V155.4c0-4.3,3.5-7.8,7.8-7.8h341.8c4.3,0,7.8,3.5,7.8,7.8v241.1
		C508.6,400.8,505.1,404.3,500.8,404.3z"/>
	<path class="st5" d="M494,382.9h-101c-2.2,0-3.9-1.8-3.9-3.9v-47.9c0-2.2,1.8-3.9,3.9-3.9h101c2.2,0,3.9,1.8,3.9,3.9V379
		C497.9,381.1,496.1,382.9,494,382.9z"/>
	<path class="st5" d="M218.8,230.4h-56.9c-1.6,0-3-1.3-3-3v-49.7c0-1.6,1.3-3,3-3h56.9c1.6,0,3,1.3,3,3v49.7
		C221.7,229,220.4,230.4,218.8,230.4z"/>
	<path class="st13" d="M218.8,297.6h-56.9c-1.6,0-3-1.3-3-3v-49.7c0-1.6,1.3-3,3-3h56.9c1.6,0,3,1.3,3,3v49.7
		C221.7,296.2,220.4,297.6,218.8,297.6z"/>
	<path class="st5" d="M218.8,364.8h-56.9c-1.6,0-3-1.3-3-3V312c0-1.6,1.3-3,3-3h56.9c1.6,0,3,1.3,3,3v49.7
		C221.7,363.4,220.4,364.8,218.8,364.8z"/>
	<g>
		<rect x="240.9" y="324.5" class="st13" width="13.5" height="50.9"/>
		<rect x="264.6" y="331.1" class="st13" width="13.5" height="44.3"/>
		<rect x="288.4" y="344.3" class="st13" width="13.5" height="31.1"/>
		<rect x="312.2" y="334.4" class="st13" width="13.5" height="41"/>
		<rect x="336" y="344.3" class="st13" width="13.5" height="31.1"/>
		<rect x="359.8" y="334.4" class="st13" width="13.5" height="41"/>
		<rect x="235.9" y="379.6" class="st13" width="142.8" height="2"/>
	</g>
	<rect x="229.2" y="159.1" class="st13" width="2.8" height="209"/>
	<g>
		<path class="st14" d="M302.8,232.8h134.8c13.3,0,22.8-13.4,18-25.8c-2-5.1-5.1-9.6-13.3-11.7c-6.7-2.4-17.7,3.8-17.8,7.7
			c0,0,8.9-30.7-20-45.3c-28.9-14.6-51.2,5.1-52.4,14.6c0,0-21.5-7.8-32.3,4.9c-10.2,12.1-7.6,25.8-7.6,25.8s-14-7.1-21.7,1.2
			c-0.2,0.2-0.3,0.3-0.5,0.5C280.3,215.7,288.3,232.8,302.8,232.8z"/>
		<path class="st15" d="M282.1,213.3c0,0,0-12.9,13-15.9"/>
		<path class="st15" d="M452.2,195.5c0,0,13.3,8.5,6.9,27.4"/>
		<g>
			<g>
				<g>
					<g>
						<g>
							<path class="st16" d="M309.2,252.3c-2,0-3.6,1.6-3.6,3.6s1.6,3.6,3.6,3.6c2,0,3.6-1.6,3.6-3.6S311.2,252.3,309.2,252.3z
								 M309.2,257.9c-1.1,0-2-0.9-2-2s0.9-2,2-2s2,0.9,2,2S310.3,257.9,309.2,257.9z"/>
						</g>
					</g>
					<path class="st16" d="M317.4,234.6v20.3h-5.1v2.1h5.1l0,0c1.2,0,2.1-1,2.1-2.1v0v-20.3H317.4z"/>
				</g>
			</g>
			<g>
				<g>
					<g>
						<g>
							<path class="st16" d="M432.6,247.4c0,2,1.6,3.6,3.6,3.6s3.6-1.6,3.6-3.6c0-2-1.6-3.6-3.6-3.6S432.6,245.4,432.6,247.4z
								 M434.2,247.4c0-1.1,0.9-2,2-2c1.1,0,2,0.9,2,2c0,1.1-0.9,2-2,2C435.1,249.4,434.2,248.5,434.2,247.4z"/>
						</g>
					</g>
					<path class="st16" d="M428,234.6v11.8h5.1v2.1H428l0,0c-1.2,0-2.1-1-2.1-2.1v0v-11.8H428z"/>
				</g>
			</g>
			<g>
				<g>
					<rect x="338.5" y="234.6" class="st16" width="2.1" height="23.5"/>
					<g>
						<g>
							<path class="st16" d="M339.6,257.4c-2,0-3.6,1.6-3.6,3.6c0,2,1.6,3.6,3.6,3.6c2,0,3.6-1.6,3.6-3.6
								C343.2,259,341.6,257.4,339.6,257.4z M339.6,263c-1.1,0-2-0.9-2-2c0-1.1,0.9-2,2-2c1.1,0,2,0.9,2,2
								C341.6,262.1,340.7,263,339.6,263z"/>
						</g>
					</g>
				</g>
			</g>
			<g>
				<g>
					<rect x="382.8" y="234.6" class="st16" width="2.1" height="23.5"/>
					<g>
						<g>
							<path class="st16" d="M383.9,257.4c-2,0-3.6,1.6-3.6,3.6c0,2,1.6,3.6,3.6,3.6c2,0,3.6-1.6,3.6-3.6
								C387.4,259,385.9,257.4,383.9,257.4z M383.9,263c-1.1,0-2-0.9-2-2c0-1.1,0.9-2,2-2c1.1,0,2,0.9,2,2
								C385.9,262.1,385,263,383.9,263z"/>
						</g>
					</g>
				</g>
			</g>
			<g>
				<g>
					<rect x="361" y="234.6" class="st16" width="2.1" height="45.8"/>
					<g>
						<g>
							<path class="st16" d="M362.1,279.7c-2,0-3.6,1.6-3.6,3.6s1.6,3.6,3.6,3.6s3.6-1.6,3.6-3.6S364,279.7,362.1,279.7z
								 M362.1,285.3c-1.1,0-2-0.9-2-2c0-1.1,0.9-2,2-2c1.1,0,2,0.9,2,2C364.1,284.4,363.2,285.3,362.1,285.3z"/>
						</g>
					</g>
				</g>
			</g>
			<g>
				<g>
					<rect x="404.1" y="234.5" class="st16" width="2.1" height="17.2"/>
					<g>
						<g>
							<path class="st16" d="M405.2,251.1c-2,0-3.6,1.6-3.6,3.6c0,2,1.6,3.6,3.6,3.6c2,0,3.6-1.6,3.6-3.6
								C408.7,252.7,407.1,251.1,405.2,251.1z M405.2,256.7c-1.1,0-2-0.9-2-2c0-1.1,0.9-2,2-2c1.1,0,2,0.9,2,2
								C407.2,255.8,406.3,256.7,405.2,256.7z"/>
						</g>
					</g>
				</g>
			</g>
		</g>
		<g>
			<g>
				<rect x="340.5" y="178.7" class="st13" width="20.5" height="33"/>
				<polygon class="st13" points="332.5,211.6 369,211.6 350.9,229.7 				"/>
			</g>
		</g>
		<g>
			<g>
				<rect x="380.6" y="177.5" class="st4" width="20.5" height="33"/>
				<polygon class="st4" points="409.1,177.5 372.6,177.5 390.7,159.4 				"/>
			</g>
		</g>
	</g>
	<rect x="264.4" y="402.4" class="st17" width="9" height="134.7"/>
	<rect x="44.7" y="402.4" class="st17" width="9" height="134.7"/>
	<g>
		<rect x="30" y="394.7" class="st18" width="259.3" height="5.4"/>
		<rect x="30" y="400.1" class="st19" width="259.3" height="5.4"/>
	</g>
	<rect x="118.3" y="387.5" class="st20" width="105.3" height="7.2"/>
	<path class="st21" d="M205.7,367c0,0,18.1-3.3,24.8-3.2c6.7,0.1,21,3.3,24,11.3c3.1,8-13.2,7.8-22.8,0l-22.1,9.5L205.7,367z"/>
	<path class="st20" d="M199.8,519.2c0,0-5.8,21.8-2.6,24.5c3.2,2.7,5.8,2.3,20,2.3c15.3,0,27.1,0.6,27.9-7.3
		c0.8-7.9-0.5-16.3-13.4-15c-13.3,1.3-11.2,0.2-14.2-4.6H199.8z"/>
	<path class="st19" d="M181.8,412.3c0,0,25.1-5,36.5-3.9c11.4,1.2,8.5,41.1,8.5,41.1l-7.9,70c0,0-4.6,7.3-21,1.2
		c0,0,0.3-65.4-4.5-70.2l-11.5-13.1V412.3z"/>
	<g>
		<path class="st22" d="M127.8,285.8c0,0,3.3,12.9,0.9,18.3h16.3c0,0-2.5-16.1-1.4-20.3l-5.8-5.2L127.8,285.8z"/>
		<g>
			<defs>
				<path id="SVGID_2_" d="M151.2,252.9l1.1-2.2c0,0,9.6-5.2,8.4-18.9c0,0-13.8,3-22.4,0.7c-8.5-2.3-20.2,1-22.1,8.2
					c0,0-8.7,1.7-10,10.7c-1.3,8.9,3.9,23.6,10.4,30.5c6.5,6.8,13.8,6.6,18.1,5.5c4.3-1.1,4.4-3.3,4.4-3.3l5.2-4.7L151.2,252.9z"/>
			</defs>
			<use xlink:href="#SVGID_2_"  style="overflow:visible;fill:#0F2E6D;"/>
			<clipPath id="SVGID_3_">
				<use xlink:href="#SVGID_2_"  style="overflow:visible;"/>
			</clipPath>
			<path class="st23" d="M113.6,280.5c0,0,17.3,4.2,17.8-6.3s-1.5-20.1,4.3-23.5c5.8-3.4,17.7-2.5,26.2-11.8l-13.8,31.2l-11.6,19.2
				l-19.9,1L113.6,280.5z"/>
		</g>
		<g>
			<defs>
				<path id="SVGID_4_" d="M152.2,250.7c0,0,4,13.6,2.8,23.4c-1.2,9.9-4.5,18.6-12.6,12.8c-2.9-2.5-3.3-2.8-3.3-2.8s2.4-4,2-9.1
					c0,0-4.5-1.6-3.6-5.8c1-4.1,3.8-5.3,5.7-3.8c0,0-0.6-7.2,0.7-9.3C145.3,254,152.2,250.7,152.2,250.7z"/>
			</defs>
			<use xlink:href="#SVGID_4_"  style="overflow:visible;fill:#FFACA6;"/>
			<clipPath id="SVGID_5_">
				<use xlink:href="#SVGID_4_"  style="overflow:visible;"/>
			</clipPath>
			<path class="st24" d="M140.6,278.3l0.5-0.1c0,0,2.1-1.1,1.4-4.8c-0.7-3.7,3.1-3.9,3.5-6.8c0.4-2.9-1.5-7.3,0.9-9.4
				s6.1-3.6,6.6-4.8l-0.7-3.6l-14.1,6.4l-5.4,12.2l2.7,9.4L140.6,278.3z"/>
		</g>
	</g>
	<rect x="125" y="297.3" class="st25" width="24.5" height="7.5"/>
	<path class="st11" d="M227.9,527.7c0,0-5.8,21.8-2.6,24.5c3.2,2.7,5.8,2.3,20,2.3c15.3,0,27.1,0.6,27.9-7.3s-0.5-16.3-13.4-15
		c-13.3,1.3-11.2,0.2-14.2-4.6H227.9z"/>
	<g>
		<defs>
			<path id="SVGID_6_" d="M181,419.7l5.4,1.6c0,0,32.3,0.3,42.4,1c14.4,0.9,38.4-0.6,35.3,24.1c-2,16-17.8,82.5-17.8,82.5
				s-7.3,4.3-19.6-1.3c0,0,6.9-53.3,6.8-63.4s-17.9-8.5-41.7-5.8c-21.8,2.5-56,2.8-66.8-7.3L181,419.7z"/>
		</defs>
		<use xlink:href="#SVGID_6_"  style="overflow:visible;fill:#153077;"/>
		<clipPath id="SVGID_7_">
			<use xlink:href="#SVGID_6_"  style="overflow:visible;"/>
		</clipPath>
		<path class="st26" d="M177.8,436.7l-3.9,11.7c0,0,43.6-10.2,60.1-8.5c16.5,1.7,20.9,68.1,20.9,68.1l12.3-77.9
			c0,0-39.4-19.4-39.9-19.4c-0.5,0-42.2,7.1-42.2,7.1l-4.4,20.3"/>
	</g>
	<g>
		<defs>
			<path id="SVGID_8_" d="M126.1,304.8h-2.7c0,0-16.3,1.3-18.6,14.8c-2.3,13.5-1.9,50.6-1.7,56.9s0.3,40.6,7,55.8
				c6.6,15.3,14.7,20.2,33.3,20.9c18.7,0.7,37.2-0.1,43.6-23.8c6.5-23.7-7-26.7-7-26.7s-5.3-22.5-4.7-32.2c0,0,8,18.6,17.3,21.8
				c9.3,3.2,20.6-7.3,20.6-7.3s1.9-17.2-6.3-20.3c0,0-6.2,0.7-8.7-0.4c-2.4-1-6.3-10.3-12.1-28.7s-10.5-24.3-18-27
				c-7.5-2.8-18.5-3.9-18.5-3.9H126.1z"/>
		</defs>
		<use xlink:href="#SVGID_8_"  style="overflow:visible;fill:#FFAB00;"/>
		<clipPath id="SVGID_9_">
			<use xlink:href="#SVGID_8_"  style="overflow:visible;"/>
		</clipPath>
		<path class="st27" d="M176.4,376.8l-1.1-6.3c0,0-9.3-13.1-6.3-47.3c0,0-10.9,48,1.5,76c12.5,28,22.5,27.5,22.5,27.5l-0.3-25
			L176.4,376.8z"/>
	</g>
	<g>
		<defs>
			<path id="SVGID_10_" d="M177.8,460.3c0,0,1.4-6.4,1.2-25.3c-0.2-18.9-6.2-19.5-19.9-19.3c-13.7,0.2-46.7,5.4-54-4.6
				c-7.3-10-13.5-41.1-15.2-51.9c-1.7-10.8-5.6-41.7-7.3-56.3c-1.7-14.7-3.1-39.7-24.3-32.4c-21.2,7.3,1.4,118.6,4.1,131.6
				c2.7,12.9,10.4,59.3,34.1,60.1S177.8,460.3,177.8,460.3z"/>
		</defs>
		<use xlink:href="#SVGID_10_"  style="overflow:visible;fill:#0542BF;"/>
		<clipPath id="SVGID_11_">
			<use xlink:href="#SVGID_10_"  style="overflow:visible;"/>
		</clipPath>
		<path class="st28" d="M44.7,263.6c0,0,10.5-12.6,17.7,1c7.2,13.5,5.5,67,13.9,104c8.4,37,23.1,81.6,47.5,93.8c24.3,12.2,0,0,0,0
			l-63.4,3.4c0,0-13.3-88.6-13.9-90.4c-0.6-1.7-11.3-77.8-11.3-77.8L44.7,263.6z"/>
	</g>
	<g>
		<path class="st29" d="M615.5,520.7c0,0,6.9,13.7,19.1,18.8s29.4-1.3,39.1-8.9s19-18.3,19.9-26.4c0.9-8-15.2-4.9-15.2-4.9
			s7.1-9.8,10.1-16.7c3-7-0.5-14.2-10.3-9.9s-9.8,4.3-9.8,4.3s7.5-15.2,7.4-24.6c-0.1-9.5-5.7-23.7-16.2-13.6
			c-10.5,10-11.6,31.1-11.6,31.1s-2.3-9-5.7-15.5c-3.3-6.6-10.3-5.7-13.4,3.4c-3.2,9.1-4.4,22.2-4.4,22.2s-3-10.1-8-8.5
			c-5,1.6-7.9,13.4-7,25C610.2,508.1,615.5,520.7,615.5,520.7z"/>
		<g>
			<path class="st30" d="M617.7,496.1c0,0,0.4-49.9,38.6-67.7c0,0,17.5,41.9-9.1,77.9s-21.1,27.6-21.1,27.6L617.7,496.1z"/>
			<line class="st31" x1="646.9" y1="451.7" x2="625.1" y2="525.9"/>
		</g>
	</g>
	<g>
		<path class="st7" d="M635.1,395.7H457c-0.5,0-0.9-0.4-0.9-0.9v-27.6c0-0.5,0.4-0.9,0.9-0.9h178.1c0.5,0,0.9,0.4,0.9,0.9v27.6
			C635.9,395.3,635.5,395.7,635.1,395.7z"/>
		<ellipse class="st11" cx="474.1" cy="381" rx="3.8" ry="3.9"/>
		<ellipse class="st11" cx="490.1" cy="381" rx="3.8" ry="3.9"/>
		<ellipse class="st11" cx="506.1" cy="381" rx="3.8" ry="3.9"/>
		<path class="st11" d="M593.5,388.5h-4.1c-0.1,0-0.2-0.1-0.2-0.2v-14.6c0-0.1,0.1-0.2,0.2-0.2h4.1c0.1,0,0.2,0.1,0.2,0.2v14.6
			C593.7,388.4,593.6,388.5,593.5,388.5z"/>
		<path class="st11" d="M600.8,388.5h-4.1c-0.1,0-0.2-0.1-0.2-0.2v-14.6c0-0.1,0.1-0.2,0.2-0.2h4.1c0.1,0,0.2,0.1,0.2,0.2v14.6
			C600.9,388.4,600.9,388.5,600.8,388.5z"/>
		<path class="st11" d="M608,388.5h-4.1c-0.1,0-0.2-0.1-0.2-0.2v-14.6c0-0.1,0.1-0.2,0.2-0.2h4.1c0.1,0,0.2,0.1,0.2,0.2v14.6
			C608.2,388.4,608.1,388.5,608,388.5z"/>
		<path class="st11" d="M615.2,388.5h-4.1c-0.1,0-0.2-0.1-0.2-0.2v-14.6c0-0.1,0.1-0.2,0.2-0.2h4.1c0.1,0,0.2,0.1,0.2,0.2v14.6
			C615.4,388.4,615.3,388.5,615.2,388.5z"/>
		<rect x="463.2" y="395.7" class="st20" width="165.4" height="5.3"/>
		<path class="st7" d="M635.1,430.3H457c-0.5,0-0.9-0.4-0.9-0.9v-27.6c0-0.5,0.4-0.9,0.9-0.9h178.1c0.5,0,0.9,0.4,0.9,0.9v27.6
			C635.9,429.9,635.5,430.3,635.1,430.3z"/>
		<ellipse class="st11" cx="474.1" cy="415.7" rx="3.8" ry="3.9"/>
		<ellipse class="st11" cx="490.1" cy="415.7" rx="3.8" ry="3.9"/>
		<ellipse class="st11" cx="506.1" cy="415.7" rx="3.8" ry="3.9"/>
		<path class="st11" d="M593.5,423.1h-4.1c-0.1,0-0.2-0.1-0.2-0.2v-14.6c0-0.1,0.1-0.2,0.2-0.2h4.1c0.1,0,0.2,0.1,0.2,0.2v14.6
			C593.7,423,593.6,423.1,593.5,423.1z"/>
		<path class="st11" d="M600.8,423.1h-4.1c-0.1,0-0.2-0.1-0.2-0.2v-14.6c0-0.1,0.1-0.2,0.2-0.2h4.1c0.1,0,0.2,0.1,0.2,0.2v14.6
			C600.9,423,600.9,423.1,600.8,423.1z"/>
		<path class="st11" d="M608,423.1h-4.1c-0.1,0-0.2-0.1-0.2-0.2v-14.6c0-0.1,0.1-0.2,0.2-0.2h4.1c0.1,0,0.2,0.1,0.2,0.2v14.6
			C608.2,423,608.1,423.1,608,423.1z"/>
		<path class="st11" d="M615.2,423.1h-4.1c-0.1,0-0.2-0.1-0.2-0.2v-14.6c0-0.1,0.1-0.2,0.2-0.2h4.1c0.1,0,0.2,0.1,0.2,0.2v14.6
			C615.4,423,615.3,423.1,615.2,423.1z"/>
		<rect x="463.2" y="430.3" class="st20" width="165.4" height="5.3"/>
		<path class="st7" d="M635.1,464.9H457c-0.5,0-0.9-0.4-0.9-0.9v-27.6c0-0.5,0.4-0.9,0.9-0.9h178.1c0.5,0,0.9,0.4,0.9,0.9v27.6
			C635.9,464.5,635.5,464.9,635.1,464.9z"/>
		<ellipse class="st11" cx="474.1" cy="450.3" rx="3.8" ry="3.9"/>
		<ellipse class="st11" cx="490.1" cy="450.3" rx="3.8" ry="3.9"/>
		<ellipse class="st11" cx="506.1" cy="450.3" rx="3.8" ry="3.9"/>
		<path class="st11" d="M593.5,457.7h-4.1c-0.1,0-0.2-0.1-0.2-0.2v-14.6c0-0.1,0.1-0.2,0.2-0.2h4.1c0.1,0,0.2,0.1,0.2,0.2v14.6
			C593.7,457.6,593.6,457.7,593.5,457.7z"/>
		<path class="st11" d="M600.8,457.7h-4.1c-0.1,0-0.2-0.1-0.2-0.2v-14.6c0-0.1,0.1-0.2,0.2-0.2h4.1c0.1,0,0.2,0.1,0.2,0.2v14.6
			C600.9,457.6,600.9,457.7,600.8,457.7z"/>
		<path class="st11" d="M608,457.7h-4.1c-0.1,0-0.2-0.1-0.2-0.2v-14.6c0-0.1,0.1-0.2,0.2-0.2h4.1c0.1,0,0.2,0.1,0.2,0.2v14.6
			C608.2,457.6,608.1,457.7,608,457.7z"/>
		<path class="st11" d="M615.2,457.7h-4.1c-0.1,0-0.2-0.1-0.2-0.2v-14.6c0-0.1,0.1-0.2,0.2-0.2h4.1c0.1,0,0.2,0.1,0.2,0.2v14.6
			C615.4,457.6,615.3,457.7,615.2,457.7z"/>
		<rect x="463.2" y="464.9" class="st20" width="165.4" height="5.3"/>
		<path class="st7" d="M635.1,499.5H457c-0.5,0-0.9-0.4-0.9-0.9v-27.6c0-0.5,0.4-0.9,0.9-0.9h178.1c0.5,0,0.9,0.4,0.9,0.9v27.6
			C635.9,499.1,635.5,499.5,635.1,499.5z"/>
		<ellipse class="st11" cx="474.1" cy="484.9" rx="3.8" ry="3.9"/>
		<ellipse class="st11" cx="490.1" cy="484.9" rx="3.8" ry="3.9"/>
		<ellipse class="st11" cx="506.1" cy="484.9" rx="3.8" ry="3.9"/>
		<path class="st11" d="M593.5,492.3h-4.1c-0.1,0-0.2-0.1-0.2-0.2v-14.6c0-0.1,0.1-0.2,0.2-0.2h4.1c0.1,0,0.2,0.1,0.2,0.2v14.6
			C593.7,492.2,593.6,492.3,593.5,492.3z"/>
		<path class="st11" d="M600.8,492.3h-4.1c-0.1,0-0.2-0.1-0.2-0.2v-14.6c0-0.1,0.1-0.2,0.2-0.2h4.1c0.1,0,0.2,0.1,0.2,0.2v14.6
			C600.9,492.2,600.9,492.3,600.8,492.3z"/>
		<path class="st11" d="M608,492.3h-4.1c-0.1,0-0.2-0.1-0.2-0.2v-14.6c0-0.1,0.1-0.2,0.2-0.2h4.1c0.1,0,0.2,0.1,0.2,0.2v14.6
			C608.2,492.2,608.1,492.3,608,492.3z"/>
		<path class="st11" d="M615.2,492.3h-4.1c-0.1,0-0.2-0.1-0.2-0.2v-14.6c0-0.1,0.1-0.2,0.2-0.2h4.1c0.1,0,0.2,0.1,0.2,0.2v14.6
			C615.4,492.2,615.3,492.3,615.2,492.3z"/>
		<rect x="463.2" y="499.5" class="st20" width="165.4" height="5.3"/>
		<path class="st7" d="M635.1,534.1H457c-0.5,0-0.9-0.4-0.9-0.9v-27.6c0-0.5,0.4-0.9,0.9-0.9h178.1c0.5,0,0.9,0.4,0.9,0.9v27.6
			C635.9,533.8,635.5,534.1,635.1,534.1z"/>
		<ellipse class="st11" cx="474.1" cy="519.5" rx="3.8" ry="3.9"/>
		<ellipse class="st11" cx="490.1" cy="519.5" rx="3.8" ry="3.9"/>
		<ellipse class="st11" cx="506.1" cy="519.5" rx="3.8" ry="3.9"/>
		<path class="st11" d="M593.5,526.9h-4.1c-0.1,0-0.2-0.1-0.2-0.2v-14.6c0-0.1,0.1-0.2,0.2-0.2h4.1c0.1,0,0.2,0.1,0.2,0.2v14.6
			C593.7,526.9,593.6,526.9,593.5,526.9z"/>
		<path class="st11" d="M600.8,526.9h-4.1c-0.1,0-0.2-0.1-0.2-0.2v-14.6c0-0.1,0.1-0.2,0.2-0.2h4.1c0.1,0,0.2,0.1,0.2,0.2v14.6
			C600.9,526.9,600.9,526.9,600.8,526.9z"/>
		<path class="st11" d="M608,526.9h-4.1c-0.1,0-0.2-0.1-0.2-0.2v-14.6c0-0.1,0.1-0.2,0.2-0.2h4.1c0.1,0,0.2,0.1,0.2,0.2v14.6
			C608.2,526.9,608.1,526.9,608,526.9z"/>
		<path class="st11" d="M615.2,526.9h-4.1c-0.1,0-0.2-0.1-0.2-0.2v-14.6c0-0.1,0.1-0.2,0.2-0.2h4.1c0.1,0,0.2,0.1,0.2,0.2v14.6
			C615.4,526.9,615.3,526.9,615.2,526.9z"/>
		<rect x="463.2" y="534.1" class="st20" width="165.4" height="5.3"/>
	</g>
	<path class="st11" d="M232.1,394.9c0,0,0.4-8.6,10.9-8.9c10.5-0.3,11,8.9,11,8.9H232.1z"/>
	<g>
		<path class="st30" d="M323.8,288.2H246c-1.1,0-2-0.9-2-2l0,0c0-1.1,0.9-2,2-2h77.9c1.1,0,2,0.9,2,2l0,0
			C325.9,287.3,325,288.2,323.8,288.2z"/>
		<path class="st5" d="M362.3,295.8H246c-1.1,0-2-0.9-2-2l0,0c0-1.1,0.9-2,2-2h116.3c1.1,0,2,0.9,2,2l0,0
			C364.3,294.9,363.4,295.8,362.3,295.8z"/>
		<path class="st5" d="M362.3,303.4H246c-1.1,0-2-0.9-2-2l0,0c0-1.1,0.9-2,2-2h116.3c1.1,0,2,0.9,2,2l0,0
			C364.3,302.5,363.4,303.4,362.3,303.4z"/>
		<path class="st5" d="M362.3,311H246c-1.1,0-2-0.9-2-2l0,0c0-1.1,0.9-2,2-2h116.3c1.1,0,2,0.9,2,2l0,0
			C364.3,310.1,363.4,311,362.3,311z"/>
		<path class="st5" d="M363.5,318.6H244.8c-0.5,0-0.9-0.4-0.9-0.9v-2.4c0-0.5,0.4-0.9,0.9-0.9h118.7c0.5,0,0.9,0.4,0.9,0.9v2.4
			C364.3,318.2,363.9,318.6,363.5,318.6z"/>
	</g>
	<g>
		<path class="st5" d="M495.5,288.2H379.2c-1.1,0-2-0.9-2-2l0,0c0-1.1,0.9-2,2-2h116.3c1.1,0,2,0.9,2,2l0,0
			C497.5,287.3,496.6,288.2,495.5,288.2z"/>
		<path class="st30" d="M495.5,295.8H379.2c-1.1,0-2-0.9-2-2l0,0c0-1.1,0.9-2,2-2h116.3c1.1,0,2,0.9,2,2l0,0
			C497.5,294.9,496.6,295.8,495.5,295.8z"/>
		<path class="st30" d="M495.5,303.4H379.2c-1.1,0-2-0.9-2-2l0,0c0-1.1,0.9-2,2-2h116.3c1.1,0,2,0.9,2,2l0,0
			C497.5,302.5,496.6,303.4,495.5,303.4z"/>
		<path class="st5" d="M495.5,311H379.2c-1.1,0-2-0.9-2-2l0,0c0-1.1,0.9-2,2-2h116.3c1.1,0,2,0.9,2,2l0,0
			C497.5,310.1,496.6,311,495.5,311z"/>
		<path class="st5" d="M496.6,318.6H378c-0.5,0-0.9-0.4-0.9-0.9v-2.4c0-0.5,0.4-0.9,0.9-0.9h118.7c0.5,0,0.9,0.4,0.9,0.9v2.4
			C497.5,318.2,497.1,318.6,496.6,318.6z"/>
	</g>
	<g>
		<g>
			<path class="st20" d="M131.2,479.8v46.3h9.5v-39.7C137.5,482.6,133.9,480.7,131.2,479.8z"/>
			<path class="st32" d="M140.8,486.4v-18.2h-9.5v11.6C133.9,480.7,137.5,482.6,140.8,486.4z"/>
		</g>
		<g>
			<rect x="98.9" y="524.6" class="st33" width="73.3" height="4.4"/>
			<rect x="98.9" y="529" class="st34" width="73.3" height="6.6"/>
		</g>
		<g>
			<path class="st35" d="M93.5,537.6c-1.1,1.4-1.8,3.2-1.8,5.2c0,4.6,3.7,8.4,8.4,8.4c1.8,0,3.5-0.6,4.9-1.6
				C103.5,540.3,97.7,538,93.5,537.6z"/>
			<path class="st19" d="M108.4,542.7c0-4.6-3.7-8.4-8.4-8.4c-2.7,0-5,1.2-6.6,3.2c4.2,0.4,10,2.7,11.4,12
				C107,548,108.4,545.5,108.4,542.7z"/>
		</g>
		<g>
			<path class="st35" d="M165.6,537.6c-1.1,1.4-1.8,3.2-1.8,5.2c0,4.6,3.7,8.4,8.4,8.4c1.8,0,3.5-0.6,4.9-1.6
				C175.6,540.3,169.8,538,165.6,537.6z"/>
			<path class="st19" d="M180.6,542.7c0-4.6-3.7-8.4-8.4-8.4c-2.7,0-5,1.2-6.6,3.2c4.2,0.4,10,2.7,11.4,12
				C179.2,548,180.6,545.5,180.6,542.7z"/>
		</g>
	</g>
	<g>
		<rect x="85.2" y="459.4" class="st33" width="101.9" height="3.9"/>
		<rect x="85.2" y="463.3" class="st34" width="101.9" height="7.2"/>
	</g>
	<rect x="649.5" y="380.1" class="st1" width="35.2" height="15.6"/>
	<rect x="663.8" y="395.7" class="st5" width="35.2" height="15.6"/>
</g>
</svg>
