<svg width="879" height="635" viewBox="0 0 879 635" fill="none" xmlns="http://www.w3.org/2000/svg">
<path d="M422.973 34.1716L135.688 200.036C104.121 218.261 93.3049 258.626 111.53 290.193L277.394 577.478C295.62 609.046 335.985 619.861 367.552 601.636L654.837 435.772C686.404 417.546 697.22 377.181 678.995 345.614L513.131 58.3293C494.905 26.762 454.54 15.9462 422.973 34.1716Z" fill="#F3F6FF"/>
<path d="M843.818 300.141C851.61 290.941 871.287 294.32 878.42 297.901C859.577 332.149 842.953 307.963 837.179 343.185C834.709 358.26 816.288 343.924 817.704 370.379C818.933 393.333 803.183 395.323 801.345 407.695C799.507 420.066 794.534 430.571 783.831 434.173C768.19 439.434 756.172 420.413 767.984 411.469C779.796 402.526 756.788 389.279 774.899 378.701C793.01 368.123 773.597 343.629 796.416 337.296C819.234 330.963 810.842 317.464 818.216 310.359C825.589 303.255 834.076 311.642 843.818 300.141Z" fill="#6B8CFF"/>
<path d="M762.549 228.607C766.514 215.542 784.919 217.037 792.817 222.822C781.76 232.814 765.14 232.431 774.861 271.8C779.022 288.649 755.919 281.625 769.174 308.647C780.674 332.094 762.352 341.078 765.964 354.82C769.575 368.564 772.02 381.554 762.549 390.055C748.708 402.477 732.372 386.751 740.61 372.175C748.848 357.599 722.006 354.96 736.034 335.888C750.062 316.817 719.819 303.7 740.61 286.981C761.401 270.261 739.385 261.909 743.85 251.22C748.314 240.531 757.592 244.938 762.549 228.607Z" fill="#1BE3B3"/>
<path d="M662.432 301.017C655.305 293.604 638.71 297.519 632.815 300.942C650.676 329.074 663.579 307.624 670.349 337.276C673.247 349.967 688.198 336.799 688.379 359.374C688.536 378.963 702.067 379.822 704.283 390.247C706.498 400.671 711.289 409.344 720.603 411.84C734.213 415.488 743.46 398.674 732.921 391.692C722.381 384.711 741.301 372.226 725.307 364.187C709.312 356.149 724.577 334.289 704.791 330.111C685.006 325.931 691.452 314.006 684.793 308.353C678.134 302.701 671.34 310.283 662.432 301.017Z" fill="#54B7FF"/>
<path d="M754.169 450.315C752.33 408.883 744.699 294.805 768.07 238.714C770.108 233.824 774.389 223.348 785.446 223.348" stroke="#4F4F4F" stroke-width="1.053"/>
<path d="M732.514 461.355C731.453 421.771 714.545 335.356 655.408 306.365" stroke="#4F4F4F" stroke-width="1.053"/>
<path d="M772.463 461.688C776.197 418.727 800.209 325.888 866.384 298.218" stroke="#4F4F4F" stroke-width="1.053"/>
<path d="M719.63 442.644H782.813L799.105 564.687C801.63 583.603 786.897 600.411 767.791 600.411H734.652C715.546 600.411 700.813 583.603 703.338 564.687L719.63 442.644Z" fill="#2C2770"/>
<path d="M785.453 442.644H715.937C712.742 442.644 710.152 445.234 710.152 448.429C710.152 451.623 712.742 454.213 715.937 454.213H785.453C788.647 454.213 791.237 451.623 791.237 448.429C791.237 445.234 788.647 442.644 785.453 442.644Z" fill="#54B7FF"/>
<path fill-rule="evenodd" clip-rule="evenodd" d="M184.858 620.74C182.826 620.74 181.234 618.992 181.423 616.969L197.628 443.172L207.571 444.239L188.288 617.671C188.093 619.418 186.616 620.74 184.858 620.74Z" fill="#627AC1"/>
<path fill-rule="evenodd" clip-rule="evenodd" d="M213.858 620.74C211.826 620.74 210.234 618.992 210.423 616.969L226.629 443.172L236.571 444.239L217.288 617.671C217.093 619.418 215.617 620.74 213.858 620.74Z" fill="#627AC1"/>
<path fill-rule="evenodd" clip-rule="evenodd" d="M300.784 620.74C302.816 620.74 304.408 618.992 304.219 616.969L288.014 443.172L278.071 444.239L297.355 617.671C297.549 619.418 299.026 620.74 300.784 620.74Z" fill="#627AC1"/>
<path d="M303.071 431.172H194.071C189.653 431.172 186.071 434.753 186.071 439.172C186.071 443.59 189.653 447.172 194.071 447.172H303.071C307.49 447.172 311.071 443.59 311.071 439.172C311.071 434.753 307.49 431.172 303.071 431.172Z" fill="#A3BAFF"/>
<path d="M373.53 305.172H323.53C310.828 305.172 300.53 315.469 300.53 328.172V369.172H373.53V305.172Z" fill="#2C2770"/>
<path d="M583.499 305.172H340.53C356.673 305.31 369.687 318.768 369.687 335.322V558.569C369.687 581.416 386.423 600.618 408.562 603.172H651.53C629.392 600.618 612.655 581.416 612.655 558.569V335.322C612.655 318.768 599.64 305.31 583.499 305.172Z" fill="#54B7FF"/>
<path fill-rule="evenodd" clip-rule="evenodd" d="M612.53 335.207C612.524 334.359 612.483 333.519 612.41 332.688C592.108 330.394 548.449 334.565 535.256 369.562C529.583 384.614 531.759 402.192 533.838 418.968C537.81 451.044 541.42 480.186 489.086 483.129C409.382 487.612 375.361 504.547 370.015 540.411C369.835 541.625 369.673 542.843 369.53 544.063V558.59C369.53 581.426 386.269 600.619 408.411 603.172H612.53V335.207Z" fill="#40AFFF"/>
<path d="M649.772 554.172C649.772 540.218 659.928 528.492 673.363 526.932L688.53 525.172H446.291C434.961 527.802 426.912 538.186 426.912 550.171V554.172L426.909 582.665C426.909 593.795 418.31 602.893 407.53 603.172H649.77C671.253 602.895 688.528 584.842 688.528 562.668V554.172H649.772Z" fill="#2C2770"/>
<path d="M515.53 428.172C515.53 422.649 511.201 418.172 505.861 418.172H408.199C402.86 418.172 398.53 422.649 398.53 428.172V435.172C398.53 440.695 402.86 445.172 408.199 445.172H505.861C511.201 445.172 515.53 440.695 515.53 435.172V428.172Z" fill="#E1F3FF"/>
<path d="M515.53 371.172C515.53 365.649 511.201 361.172 505.861 361.172H408.199C402.86 361.172 398.53 365.649 398.53 371.172V378.172C398.53 383.695 402.86 388.172 408.199 388.172H505.861C511.201 388.172 515.53 383.695 515.53 378.172V371.172Z" fill="#E1F3FF"/>
<path d="M586.53 371.172C586.53 365.649 582.146 361.172 576.739 361.172H549.322C543.913 361.172 539.53 365.649 539.53 371.172V378.172C539.53 383.695 543.913 388.172 549.322 388.172H576.739C582.146 388.172 586.53 383.695 586.53 378.172V371.172Z" fill="#E1F3FF"/>
<path d="M586.53 428.172C586.53 422.649 582.146 418.172 576.739 418.172H549.322C543.913 418.172 539.53 422.649 539.53 428.172V435.172C539.53 440.695 543.913 445.172 549.322 445.172H576.739C582.146 445.172 586.53 440.695 586.53 435.172V428.172Z" fill="#E1F3FF"/>
<path d="M586.53 486.172C586.53 480.649 582.146 476.172 576.739 476.172H549.322C543.913 476.172 539.53 480.649 539.53 486.172V493.172C539.53 498.694 543.913 503.172 549.322 503.172H576.739C582.146 503.172 586.53 498.694 586.53 493.172V486.172Z" fill="#E1F3FF"/>
<path d="M515.53 486.172C515.53 480.649 511.201 476.172 505.861 476.172H408.199C402.86 476.172 398.53 480.649 398.53 486.172V493.172C398.53 498.694 402.86 503.172 408.199 503.172H505.861C511.201 503.172 515.53 498.694 515.53 493.172V486.172Z" fill="#E1F3FF"/>
<path d="M687.499 525.172H444.53C460.672 525.309 473.686 538.812 473.686 555.422V593.283C473.686 614.006 488.815 631.423 508.829 633.739L512.561 634.172H755.53L751.798 633.739C731.784 631.423 716.655 614.006 716.655 593.283V555.422C716.655 538.812 703.641 525.309 687.499 525.172Z" fill="#54B7FF"/>
<path d="M529.911 585.172L546.262 598.172L562.613 585.172L578.963 598.172L595.316 585.172L611.667 598.172L628.018 585.172L644.369 598.172L660.72 585.172L677.071 598.172L693.423 585.172L709.774 598.172L726.125 585.172L742.476 598.172L758.828 585.172L775.179 598.172L791.53 585.172V593.669C791.53 615.842 774.255 633.893 752.772 634.172H510.53C521.312 633.893 529.911 624.794 529.911 613.666V585.172Z" fill="#BAE2FF"/>
<path d="M607.295 541.699C605.888 537.775 602.263 535.172 598.211 535.172H504.378C501.005 535.172 498.665 538.642 499.836 541.907L504.765 555.645C506.172 559.567 509.797 562.172 513.849 562.172H607.682C611.055 562.172 613.396 558.7 612.225 555.435L607.295 541.699Z" fill="#E1F3FF"/>
<path d="M684.284 541.699C682.873 537.775 679.24 535.172 675.178 535.172H639.39C636.009 535.172 633.663 538.642 634.836 541.907L639.777 555.645C641.187 559.567 644.821 562.172 648.883 562.172H684.671C688.052 562.172 690.398 558.7 689.224 555.435L684.284 541.699Z" fill="#E1F3FF"/>
<path d="M486.431 117.796L350.998 186.803C347.553 188.558 346.184 192.773 347.939 196.218L393.338 285.318C395.093 288.763 399.308 290.132 402.753 288.377L538.186 219.371C541.63 217.616 543 213.4 541.245 209.956L495.846 120.855C494.091 117.41 489.875 116.041 486.431 117.796Z" fill="white" stroke="#E5E5E5" stroke-width="2"/>
<path d="M386.663 213.141C390.846 211.01 392.611 206.091 390.605 202.154C388.599 198.217 383.582 196.754 379.399 198.885C375.216 201.016 373.452 205.935 375.458 209.872C377.463 213.808 382.48 215.272 386.663 213.141Z" fill="#A3B7FF"/>
<path d="M411.28 241.925L396.133 249.643L407.029 271.027L422.176 263.309L411.28 241.925Z" fill="#5FFFD8"/>
<path d="M403.543 226.788L388.396 234.506L399.292 255.89L414.439 248.172L403.543 226.788Z" fill="#1BE3B3"/>
<path d="M437.94 231.272L422.792 238.99L432.78 258.592L447.927 250.874L437.94 231.272Z" fill="#5FFFD8"/>
<path d="M433.787 223.023L418.64 230.74L427.266 247.67L442.413 239.952L433.787 223.023Z" fill="#1BE3B3"/>
<path d="M457.326 206.367L442.179 214.085L458.068 245.27L473.215 237.553L457.326 206.367Z" fill="#5FFFD8"/>
<path d="M451.33 195.559L436.183 203.277L446.625 223.77L461.772 216.052L451.33 195.559Z" fill="#1BE3B3"/>
<path d="M482.549 193.806L467.402 201.523L483.292 232.709L498.439 224.991L482.549 193.806Z" fill="#5FFFD8"/>
<path d="M469.005 167.565L453.857 175.283L469.747 206.468L484.894 198.75L469.005 167.565Z" fill="#1BE3B3"/>
<path d="M507.789 180.244L492.642 187.962L508.532 219.147L523.679 211.429L507.789 180.244Z" fill="#5FFFD8"/>
<path d="M499.088 163.09L483.94 170.807L499.83 201.993L514.977 194.275L499.088 163.09Z" fill="#1BE3B3"/>
<path d="M333.241 615.426L321.44 605.311C315.162 599.93 316.363 583.495 316.363 583.495L299.486 582.583V600.829L296.749 610.408L331.873 617.251L333.241 615.426Z" fill="#FFAE64"/>
<path d="M327.35 626.374H338.627C340.094 626.374 341.45 625.595 342.189 624.328C343.306 622.413 342.717 619.955 340.873 618.727C338.643 617.243 335.389 615.037 331.417 612.233C323.662 606.759 320.469 603.11 320.469 603.11C320.469 603.11 315.907 605.847 309.065 605.847C302.223 605.847 298.573 600.829 298.573 600.829C295.638 608.169 295.532 616.338 298.278 623.751L298.573 624.549L311.802 625.461L314.083 623.637L320.116 625.361C322.468 626.033 324.903 626.374 327.35 626.374Z" fill="#2C2770"/>
<path d="M279.241 615.426L267.44 605.311C261.162 599.93 262.363 583.495 262.363 583.495L245.485 582.583V600.829L242.749 610.408L277.872 617.251L279.241 615.426Z" fill="#FFAE64"/>
<path d="M273.35 626.374H284.627C286.094 626.374 287.45 625.595 288.189 624.328C289.306 622.413 288.717 619.955 286.873 618.727C284.643 617.243 281.389 615.037 277.417 612.233C269.662 606.759 266.469 603.11 266.469 603.11C266.469 603.11 261.907 605.847 255.065 605.847C248.223 605.847 244.574 600.829 244.574 600.829C241.638 608.169 241.532 616.338 244.278 623.751L244.574 624.549L257.802 625.461L260.083 623.637L266.116 625.361C268.469 626.033 270.903 626.374 273.35 626.374Z" fill="#2C2770"/>
<path d="M270.012 599.083H238.512L234.012 450.083L214.867 443.581C196.09 437.204 181.03 410.025 191.53 375.172L264.949 379.172L309.606 410.025C319.709 413.645 326.374 423.308 326.169 434.038L323.012 599.083H293.512L288.012 445.583L266.506 433.877C273.237 437.541 277.283 444.729 276.922 452.384L270.012 599.083Z" fill="#2C2770"/>
<path d="M191.53 375.172C191.53 421.303 202.43 436.372 242.03 445.172V599.172" stroke="white"/>
<path d="M265.03 432.172L298.53 442.672L297.53 599.172" stroke="white"/>
<path d="M190.513 277.778L211.164 272.359H249.165C265.424 272.359 281.176 278.018 293.717 288.367L311.659 303.172L298.159 337.672L274.317 320.672L271.659 337.672L275.516 370.33C276.086 375.161 272.249 379.378 267.386 379.266L194.74 377.591C190.213 377.487 186.675 373.649 186.938 369.129L188.957 334.4L181.658 348.429L155.259 342.737L164.674 304.08C167.803 291.232 177.723 281.134 190.513 277.778Z" fill="#FFE071"/>
<mask id="mask0" mask-type="alpha" maskUnits="userSpaceOnUse" x="155" y="272" width="157" height="108">
<path d="M190.513 277.778L211.164 272.359H249.165C265.424 272.359 281.176 278.018 293.717 288.367L311.659 303.172L298.159 337.672L274.317 320.672L271.659 337.672L275.516 370.33C276.086 375.161 272.249 379.378 267.386 379.266L194.74 377.591C190.213 377.487 186.675 373.649 186.938 369.129L188.957 334.4L181.658 348.429L155.259 342.737L164.674 304.08C167.803 291.232 177.723 281.134 190.513 277.778Z" fill="white"/>
</mask>
<g mask="url(#mask0)">
<path d="M277.53 262.672C286.09 262.672 293.03 269.611 293.03 278.172C293.03 286.732 286.09 293.672 277.53 293.672C268.969 293.672 262.03 286.732 262.03 278.172C262.03 269.611 268.969 262.672 277.53 262.672Z" stroke="#D7BE67" stroke-width="5"/>
<path d="M169.53 287.672C174.224 287.672 178.03 291.477 178.03 296.172C178.03 300.866 174.224 304.672 169.53 304.672C164.835 304.672 161.03 300.866 161.03 296.172C161.03 291.477 164.835 287.672 169.53 287.672Z" stroke="#D7BE67" stroke-width="5"/>
<path d="M213.53 312.672C216.567 312.672 219.03 315.134 219.03 318.172C219.03 321.209 216.567 323.672 213.53 323.672C210.492 323.672 208.03 321.209 208.03 318.172C208.03 315.134 210.492 312.672 213.53 312.672Z" stroke="#D7BE67" stroke-width="3"/>
<path d="M222.53 364.672C230.538 364.672 237.03 371.164 237.03 379.172C237.03 387.18 230.538 393.672 222.53 393.672C214.522 393.672 208.03 387.18 208.03 379.172C208.03 371.164 214.522 364.672 222.53 364.672Z" stroke="#D7BE67" stroke-width="3"/>
<path d="M295.53 319.672C303.538 319.672 310.03 326.164 310.03 334.172C310.03 342.18 303.538 348.672 295.53 348.672C287.522 348.672 281.03 342.18 281.03 334.172C281.03 326.164 287.522 319.672 295.53 319.672Z" stroke="#D7BE67" stroke-width="3"/>
</g>
<path d="M211.306 267.789C213.185 263.096 212.872 247.846 212.481 240.807C221.091 242.371 237.96 248.198 236.551 258.991C235.142 269.783 239.096 272.481 241.248 272.481C243.597 277.565 245.123 288.318 232.442 290.665C219.76 293.011 209.154 281.866 205.436 276.001C206.61 275.219 209.428 272.481 211.306 267.789Z" fill="#FF9330"/>
<path d="M206.659 214.879C196.968 218.765 206.797 231.113 211.051 237.158H225.344C230.244 237.158 241.678 230.941 246.783 227.832C251.887 225.587 263.627 220.061 259.033 214.879C250.43 207.603 262.659 201.172 249.659 194.672C236.659 188.172 230.159 201.172 216.659 201.172C203.159 201.172 214.659 211.672 206.659 214.879Z" fill="#2C2770"/>
<mask id="mask1" mask-type="alpha" maskUnits="userSpaceOnUse" x="205" y="241" width="38" height="50">
<path d="M211.621 267.781C213.488 263.147 213.176 248.085 212.788 241.133C221.344 242.678 238.106 248.433 236.706 259.092C235.306 269.751 239.233 272.416 241.372 272.416C243.706 277.436 245.223 288.057 232.622 290.374C220.021 292.691 209.482 281.685 205.787 275.892C206.954 275.119 209.754 272.416 211.621 267.781Z" fill="white"/>
</mask>
<g mask="url(#mask1)">
<path d="M238.309 268.493C219.312 266.428 213.186 250.425 212.498 242.682L238.309 257.136C246.224 261.782 257.305 270.558 238.309 268.493Z" fill="#D76767"/>
</g>
<path d="M212.997 242.408C212.615 248.838 220.455 260.529 234.797 259.945C243.171 259.603 245.286 250.031 247.419 239.486C248.939 231.968 251.816 223.956 250.861 218.442L238.24 214.35C239.961 216.689 243.403 220.196 237.666 220.196C231.989 220.196 226.575 218.442 224.471 216.689C223.324 223.703 218.16 223.118 218.16 226.626V236.563C213.571 237.031 212.806 232.471 212.997 230.133C211.085 228.964 207.26 228.146 207.26 234.225C207.26 240.304 211.085 242.214 212.997 242.408Z" fill="#FF9330"/>
<path d="M220.193 238.959C219.393 237.759 218.193 235.459 218.193 233.459C216.526 230.459 213.293 226.059 213.693 232.459C213.693 236.459 214.193 239.959 214.193 242.959C214.193 249.959 213.193 255.559 219.193 261.959C226.693 269.959 243.193 269.459 247.693 263.459C253.208 256.105 247.693 251.959 246.693 245.459C239.86 245.625 232.693 245.459 227.193 244.959C222.693 244.55 221.693 240.959 220.193 238.959Z" fill="#2C2770"/>
<path d="M230.483 245.327L236.869 248.52C236.413 249.433 234.953 250.619 232.763 249.889C230.574 249.159 230.331 246.848 230.483 245.327Z" fill="white"/>
<path d="M244.167 226.169H248.729C249.484 226.169 250.097 226.782 250.097 227.537C250.097 228.293 249.484 228.906 248.729 228.906H244.167C243.411 228.906 242.799 228.293 242.799 227.537C242.799 226.782 243.411 226.169 244.167 226.169Z" fill="#2C2770"/>
<path d="M225.921 226.169H230.483C231.238 226.169 231.851 226.782 231.851 227.537C231.851 228.293 231.238 228.906 230.483 228.906H225.921C225.165 228.906 224.553 228.293 224.553 227.537C224.553 226.782 225.165 226.169 225.921 226.169Z" fill="#2C2770"/>
<path d="M228.658 233.467C227.902 233.467 227.289 232.855 227.289 232.099C227.289 231.343 227.902 230.73 228.658 230.73C229.414 230.73 230.026 231.343 230.026 232.099C230.026 232.855 229.414 233.467 228.658 233.467Z" fill="black"/>
<path d="M239.15 227.994V244.415H235.044" stroke="black"/>
<path d="M245.992 233.467C245.236 233.467 244.623 232.855 244.623 232.099C244.623 231.343 245.236 230.73 245.992 230.73C246.748 230.73 247.36 231.343 247.36 232.099C247.36 232.855 246.748 233.467 245.992 233.467Z" fill="black"/>
<path d="M231.879 359.371L248.568 312.326C248.919 311.336 249.977 310.786 250.99 311.068L284.95 320.532C286.084 320.848 286.702 322.07 286.283 323.17L268.487 369.907C268.119 370.872 267.076 371.399 266.081 371.122L233.227 361.966C232.111 361.655 231.491 360.463 231.879 359.371Z" fill="#2C2770"/>
<path d="M222.044 340.437L181.963 348.16L155.159 342.672L153.196 363.996C152.325 373.457 161.567 380.626 170.514 377.43L226.228 357.532L233.312 357.898C233.522 357.909 233.732 357.903 233.941 357.881L242.937 356.927C243.015 356.919 243.094 356.917 243.172 356.922L256.291 357.699C257.378 357.763 258.338 356.994 258.513 355.919C258.701 354.762 257.915 353.671 256.757 353.483L246.489 351.816L258.867 351.295C259.788 351.256 260.521 350.51 260.544 349.589C260.567 348.673 259.88 347.893 258.969 347.802L247.331 346.631L260.258 344.421C261.286 344.245 262.014 343.32 261.944 342.28C261.872 341.214 260.987 340.385 259.918 340.384L246.001 340.364L259.776 337.723C261.117 337.466 261.912 336.073 261.452 334.788C261.118 333.854 260.207 333.254 259.218 333.316L241.133 334.45L243.659 327.672L232.403 331.119C231.102 331.518 229.923 332.242 228.98 333.224L222.044 340.437Z" fill="#FF9330"/>
<path d="M362.659 256.672L311.159 304.172L299.159 334.672L300.609 335.115C310.566 338.157 321.366 334.71 327.72 326.462L374.159 266.172L394.659 262.172L409.523 263.101C410.066 263.135 410.471 262.608 410.299 262.092C409.899 260.89 408.931 259.964 407.713 259.616L378.159 251.172L379.502 248.039C380.595 245.488 381.159 242.74 381.159 239.964C381.159 239.128 380.143 238.715 379.56 239.314L362.659 256.672Z" fill="#FF9330"/>
<path d="M174.895 69.7998C170.603 61.3758 173.953 51.0673 182.376 46.7751L258.641 7.91621C267.065 3.62418 277.374 6.97332 281.666 15.3972L336.069 122.168C340.361 130.592 337.011 140.901 328.587 145.193L252.323 184.052C243.899 188.344 233.59 184.994 229.298 176.571L174.895 69.7998Z" fill="#DAE2FF"/>
<mask id="mask2" mask-type="alpha" maskUnits="userSpaceOnUse" x="228" y="104" width="54" height="54">
<path d="M266.739 154.208C279.796 147.555 284.987 131.577 278.334 118.519C271.681 105.462 255.703 100.271 242.646 106.924C229.589 113.577 224.397 129.555 231.05 142.612C237.703 155.669 253.682 160.861 266.739 154.208ZM262.608 146.102C271.189 141.73 274.6 131.23 270.228 122.649C265.857 114.069 255.357 110.658 246.776 115.03C238.196 119.402 234.784 129.902 239.156 138.482C243.528 147.062 254.028 150.474 262.608 146.102Z" fill="white"/>
</mask>
<g mask="url(#mask2)">
<path d="M266.738 154.208C279.796 147.555 284.987 131.576 278.334 118.519C271.681 105.462 255.703 100.271 242.646 106.923C229.589 113.576 224.397 129.555 231.05 142.612C237.703 155.669 253.681 160.861 266.738 154.208Z" fill="#FAFAFA"/>
</g>
<mask id="mask3" mask-type="alpha" maskUnits="userSpaceOnUse" x="228" y="104" width="54" height="54">
<path d="M266.739 154.208C279.796 147.555 284.987 131.577 278.334 118.519C271.681 105.462 255.703 100.271 242.646 106.924C229.589 113.577 224.397 129.555 231.05 142.612C237.703 155.669 253.682 160.861 266.739 154.208ZM262.608 146.102C271.189 141.73 274.6 131.23 270.228 122.649C265.857 114.069 255.357 110.658 246.776 115.03C238.196 119.402 234.784 129.902 239.156 138.482C243.528 147.062 254.028 150.474 262.608 146.102Z" fill="white"/>
</mask>
<g mask="url(#mask3)">
<path d="M278.334 118.519C275.951 113.843 272.236 109.979 267.657 107.415C263.078 104.851 257.842 103.702 252.61 104.113C247.379 104.525 242.386 106.479 238.265 109.728C234.144 112.977 231.078 117.375 229.457 122.366C227.835 127.357 227.73 132.717 229.154 137.768C230.579 142.819 233.469 147.334 237.46 150.743C241.45 154.151 246.362 156.299 251.574 156.916C256.785 157.532 262.063 156.591 266.739 154.208L254.692 130.565L278.334 118.519Z" fill="#FF8282"/>
</g>
<path d="M205.938 93.3264C205.428 92.326 205.826 91.1016 206.827 90.5918L241.247 73.054C242.247 72.5442 243.472 72.942 243.981 73.9424C244.491 74.9429 244.093 76.1673 243.093 76.6771L208.673 94.2149C207.672 94.7247 206.448 94.3269 205.938 93.3264Z" fill="white"/>
<path d="M211.223 103.699C210.714 102.699 211.111 101.474 212.112 100.964L237.474 88.0417C238.475 87.532 239.699 87.9298 240.209 88.9302C240.718 89.9307 240.321 91.155 239.32 91.6648L213.958 104.587C212.957 105.097 211.733 104.699 211.223 103.699Z" fill="white"/>
<path d="M266.286 27.6339L193.585 64.6767C192.601 65.1782 192.21 66.3826 192.711 67.3667L198.667 79.0557C199.168 80.0398 200.373 80.4312 201.357 79.9297L274.058 42.8868C275.042 42.3854 275.433 41.181 274.932 40.1969L268.976 28.5079C268.474 27.5237 267.27 27.1324 266.286 27.6339Z" fill="#FF8282"/>
<path d="M332.405 55.4335C328.948 48.9317 331.397 40.8684 337.876 37.4236L396.529 6.23703C403.007 2.79243 411.062 5.2708 414.519 11.7726L458.336 94.181C461.793 100.683 459.344 108.746 452.866 112.191L394.212 143.377C387.734 146.822 379.679 144.343 376.222 137.842L332.405 55.4335Z" fill="#DAE2FF"/>
<path d="M356.802 73.0537C356.413 72.3222 356.719 71.3989 357.485 70.9915L383.847 56.9744C384.614 56.567 385.55 56.8297 385.939 57.5611C386.328 58.2926 386.022 59.2158 385.256 59.6233L358.894 73.6403C358.127 74.0478 357.191 73.7851 356.802 73.0537Z" fill="#2C2770"/>
<path d="M361.334 81.1757C360.945 80.4443 361.247 79.5229 362.009 79.1178L381.324 68.848C382.085 68.4429 383.018 68.7075 383.407 69.439C383.796 70.1704 383.494 71.0918 382.732 71.4969L363.417 81.7666C362.655 82.1717 361.723 81.9072 361.334 81.1757Z" fill="#2C2770"/>
<path d="M402.19 22.0146L347.448 51.1218C346.472 51.6404 346.102 52.8514 346.621 53.8267L350.846 61.7732C351.364 62.7485 352.575 63.1187 353.551 62.6002L408.293 33.4929C409.269 32.9744 409.639 31.7634 409.12 30.7881L404.895 22.8416C404.377 21.8663 403.166 21.496 402.19 22.0146Z" fill="#1BE3B3"/>
<path d="M380.074 85.5072L369.479 91.1409L389.666 129.108L400.262 123.474L380.074 85.5072Z" fill="#FAFAFA"/>
<path d="M378.704 107.087L389.299 101.454L401.036 123.527L390.441 129.161L378.704 107.087Z" fill="#1BE3B3"/>
<path d="M401.074 74.5072L390.479 80.1409L410.666 118.108L421.262 112.474L401.074 74.5072Z" fill="#FAFAFA"/>
<path d="M423.074 63.5072L412.479 69.1409L432.666 107.108L443.262 101.474L423.074 63.5072Z" fill="#FAFAFA"/>
<path d="M403.582 103.619L414.177 97.9855L422.158 112.996L411.563 118.629L403.582 103.619Z" fill="#1BE3B3"/>
<path d="M418.531 80.3799L429.126 74.7462L443.21 101.235L432.615 106.868L418.531 80.3799Z" fill="#1BE3B3"/>
<path d="M110.759 615.368L98.8992 605.789C94.8156 602.288 92.5497 596.666 93.8818 584.806C95.5444 570.005 104.829 508.172 104.829 508.172H79.7411L77.9164 601.227L75.6357 610.351L109.391 617.193L110.759 615.368Z" fill="#FFAE64"/>
<path d="M107.203 616.07L76.0914 608.07C73.3377 610.548 72.3746 614.456 73.6613 617.93L76.0914 624.491L89.3199 625.404L90.2322 622.21L96.9729 624.738C99.7549 625.781 102.702 626.316 105.673 626.316H116.19C117.629 626.316 118.96 625.551 119.685 624.308C120.804 622.389 120.167 619.927 118.258 618.791L104.829 610.807L108.444 613.436C109.181 613.971 109.264 615.038 108.62 615.682C108.25 616.053 107.711 616.2 107.203 616.07Z" fill="#2C2770"/>
<path d="M9.47754 614.742L20.8812 606.075C24.9651 602.575 27.2673 590.11 28.1797 585.092C31.3728 562.741 35.0221 504.809 35.0221 504.809H60.1106L42.7766 602.426L45.0574 610.637L10.8459 616.567L9.47754 614.742Z" fill="#FFAE64"/>
<path d="M13.0337 615.9L44.1453 607.9C46.8991 610.378 47.8622 614.286 46.5754 617.76L44.1453 624.321L30.9168 625.234L30.0045 622.041L23.2639 624.568C20.4819 625.612 17.5349 626.146 14.5637 626.146H4.04719C2.60796 626.146 1.27704 625.382 0.551851 624.138C-0.567571 622.219 0.0695008 619.757 1.9791 618.621L15.4076 610.637L11.7927 613.266C11.0562 613.801 10.9724 614.868 11.6165 615.512C11.9871 615.883 12.526 616.03 13.0337 615.9Z" fill="#2C2770"/>
<path d="M35.6062 344.016L39.3564 325.453L115.534 323.172L122.376 375.173L121.428 511.181H20.6187L32.9702 399.806L32.7659 397.626C31.0866 379.714 32.0435 361.651 35.6062 344.016Z" fill="#2C2770"/>
<path d="M43.9179 323.628C41.485 335.792 36.6194 370.703 36.6194 413.034C36.6194 413.034 34.9546 463.923 27.3521 511.971" stroke="white"/>
<path d="M167.056 204.721L146.515 215.154L148.773 237.788L168.917 228.898C181.488 223.349 190.332 211.735 192.337 198.141L199.49 149.646L205.427 142.884L210.036 136.909C211.615 134.862 212.199 132.217 211.629 129.695C211.215 127.866 209.979 126.331 208.28 125.535L199.707 121.521L205.356 107.9C205.904 106.577 205.143 105.077 203.752 104.738C202.737 104.491 201.682 104.947 201.168 105.856L192.509 121.15L190.236 120.771C188.941 120.554 187.655 121.206 187.064 122.379L184.411 127.639C183.575 129.297 183.342 131.195 183.752 133.006L185.92 142.59L167.056 204.721Z" fill="#FF9330"/>
<path d="M205.596 124.336L200.503 134.111C199.997 135.081 198.827 135.494 197.824 135.056C196.871 134.64 196.372 133.583 196.656 132.582L197.501 129.606" stroke="black"/>
<path d="M210.243 126.62L204.097 135.873C203.519 136.744 202.364 137.019 201.456 136.501C200.532 135.974 200.186 134.814 200.67 133.867L200.914 133.391" stroke="black"/>
<path d="M211.03 133.71L206.035 140.719C205.401 141.608 204.197 141.873 203.249 141.333C202.332 140.81 201.937 139.695 202.32 138.712L203.245 136.34" stroke="black"/>
<path d="M194.231 121.903L202.905 125.589C203.636 125.9 204 126.723 203.739 127.473C203.174 129.094 201.586 130.128 199.876 129.99L191.942 129.348C193.479 130.342 195.574 135.835 195.789 141.527" stroke="black"/>
<path d="M36.3846 224.778L57.0352 219.359H110.48C116.921 219.359 123.331 218.47 129.529 216.717L160.784 207.878L166.258 235.918L120.188 263.863L116.047 280.94L119.692 306.794C121.149 317.133 113.03 326.33 102.591 326.165L46.6026 325.283C42.5636 325.22 39.2057 322.155 38.7743 318.139L34.828 281.4L27.5296 295.429L1.12988 289.737L10.5448 251.08C13.6739 238.232 23.5945 228.134 36.3846 224.778Z" fill="#54B7FF"/>
<path d="M57.0352 219.359L36.3846 224.778C23.5945 228.134 13.6739 238.232 10.5448 251.08L1.12988 289.737L27.5296 295.429L33.0298 286.672L35.6417 315.776C36.2304 322.335 35.8188 328.946 34.4212 335.381L2.41318 482.763C1.74718 485.83 4.03768 488.744 7.17468 488.823L31.0837 489.419L61.53 376.672V226.172H88.0298L94.0298 376.672L110.975 491.41L135.588 492.024C138.691 492.101 141.114 489.363 140.659 486.292L111.53 289.737L114.823 284.198C118.334 278.29 120.188 271.545 120.188 264.672L166.258 235.918L160.784 207.878L129.529 216.717C123.331 218.47 116.921 219.359 110.48 219.359H57.0352Z" fill="#FF6767"/>
<path d="M98.8988 163.835C97.7758 154.852 89.0738 153.542 84.8628 154.01C82.5238 152.606 77.8448 146.992 68.0198 148.395C58.1943 149.799 46.9651 155.413 49.7725 168.046C49.7725 168.046 43.2224 183.954 41.3508 190.504C35.7365 204.54 43.8603 214.721 55.3872 215.769C70.8268 217.173 63.8087 215.769 87.6698 218.576C111.532 221.384 112.935 201.733 107.321 189.1C101.707 176.468 100.303 175.064 98.8988 163.835Z" fill="#2C2770"/>
<path d="M91.8811 173.661V177.871C93.7531 177.404 97.4961 177.31 97.4961 180.679C97.4961 184.89 94.6891 187.697 91.8811 186.293C91.5171 190.668 89.1641 199.304 82.1661 202.904C82.4171 206.203 83.1501 210.938 84.8631 214.366C87.1091 218.857 91.4131 220.916 93.2851 221.384C90.4781 224.659 82.6171 231.209 73.6341 231.209C64.6513 231.209 57.7267 224.659 55.3874 221.384C56.791 220.916 60.4404 219.138 63.8091 215.769C66.4611 213.117 66.9671 206.813 66.8341 202.195C61.0012 198.271 59.222 190.402 58.1946 186.293C56.3231 186.761 52.5801 186.574 52.5801 182.082C52.5801 177.591 56.791 177.404 58.1946 177.871V173.661C61.0019 174.128 68.3011 173.941 75.0381 169.449C81.7751 164.958 83.4601 162.899 83.4601 162.431C83.4601 164.771 84.4911 169.078 86.2671 170.853C89.0741 173.661 90.9461 173.193 91.8811 173.661Z" fill="#FFAE64"/>
<path d="M80.1277 192.875L73.7417 196.068C74.1977 196.981 75.6577 198.167 77.8467 197.437C80.0367 196.707 80.2797 194.396 80.1277 192.875Z" fill="white"/>
<path d="M66.4432 173.717H61.8816C61.1259 173.717 60.5132 174.329 60.5132 175.085C60.5132 175.841 61.1259 176.454 61.8816 176.454H66.4432C67.199 176.454 67.8117 175.841 67.8117 175.085C67.8117 174.329 67.199 173.717 66.4432 173.717Z" fill="#2C2770"/>
<path d="M84.6888 173.717H80.1273C79.3715 173.717 78.7588 174.329 78.7588 175.085C78.7588 175.841 79.3715 176.454 80.1273 176.454H84.6888C85.4446 176.454 86.0573 175.841 86.0573 175.085C86.0573 174.329 85.4446 173.717 84.6888 173.717Z" fill="#2C2770"/>
<path d="M81.952 181.015C82.7077 181.015 83.3204 180.403 83.3204 179.647C83.3204 178.891 82.7077 178.278 81.952 178.278C81.1962 178.278 80.5835 178.891 80.5835 179.647C80.5835 180.403 81.1962 181.015 81.952 181.015Z" fill="black"/>
<path d="M71.4609 175.541V191.963H75.5659" stroke="black"/>
<path d="M64.6185 181.015C65.3742 181.015 65.9869 180.403 65.9869 179.647C65.9869 178.891 65.3742 178.278 64.6185 178.278C63.8627 178.278 63.25 178.891 63.25 179.647C63.25 180.403 63.8627 181.015 64.6185 181.015Z" fill="black"/>
<path d="M94.2678 180.559C94.7248 181.623 94.8158 183.843 91.5308 184.208" stroke="black"/>
<path d="M55.2704 180.559C54.8143 181.623 54.723 183.843 58.0073 184.208" stroke="black"/>
<mask id="mask4" mask-type="alpha" maskUnits="userSpaceOnUse" x="52" y="162" width="46" height="70">
<path d="M91.8811 173.661V177.871C93.7531 177.404 97.4961 177.31 97.4961 180.679C97.4961 184.89 94.6891 187.697 91.8811 186.293C91.5171 190.668 89.1641 199.304 82.1661 202.904C82.4171 206.203 83.1501 210.938 84.8631 214.366C87.1091 218.857 91.4131 220.916 93.2851 221.384C90.4781 224.659 82.6171 231.209 73.6341 231.209C64.6513 231.209 57.7267 224.659 55.3874 221.384C56.791 220.916 60.4404 219.138 63.8091 215.769C66.4611 213.117 66.9671 206.813 66.8341 202.195C61.0012 198.271 59.222 190.402 58.1946 186.293C56.3231 186.761 52.5801 186.574 52.5801 182.082C52.5801 177.591 56.791 177.404 58.1946 177.871V173.661C61.0019 174.128 68.3011 173.941 75.0381 169.449C81.7751 164.958 83.4601 162.899 83.4601 162.431C83.4601 164.771 84.4911 169.078 86.2671 170.853C89.0741 173.661 90.9461 173.193 91.8811 173.661Z" fill="white"/>
</mask>
<g mask="url(#mask4)">
<path d="M65.531 201.542C66.747 202.302 70.64 204.279 74.654 204.279C78.464 204.279 82.028 203.046 83.16 202.531L83.321 202.454C83.275 202.478 83.221 202.503 83.16 202.531L65.0747 211.121L65.531 201.542Z" fill="#FF8282"/>
</g>
<path d="M83.1348 186.219C87.2769 186.219 90.6348 182.861 90.6348 178.719C90.6348 174.577 87.2769 171.219 83.1348 171.219C78.9926 171.219 75.6348 174.577 75.6348 178.719C75.6348 182.861 78.9926 186.219 83.1348 186.219Z" stroke="black"/>
<path d="M63.1353 186.219C67.2774 186.219 70.6353 182.861 70.6353 178.719C70.6353 174.577 67.2774 171.219 63.1353 171.219C58.9931 171.219 55.6353 174.577 55.6353 178.719C55.6353 182.861 58.9931 186.219 63.1353 186.219Z" stroke="black"/>
<path d="M70.1348 176.219C70.8018 175.553 72.8348 174.619 75.6348 176.219" stroke="black"/>
<path d="M154.577 274.472L107.01 281.121C105.2 281.374 103.672 282.595 103.025 284.304L92.2199 312.882C90.8809 316.423 93.8099 320.109 97.5619 319.605L138.79 314.067C140.541 313.832 142.037 312.69 142.727 311.064L157.438 276.379L154.577 274.472Z" fill="#2C2770"/>
<path d="M156.371 276.385L108.916 283.028C107.106 283.281 105.579 284.502 104.932 286.211L94.1267 314.789C92.7877 318.33 95.7167 322.017 99.4687 321.513L140.659 315.979C142.43 315.741 143.939 314.576 144.618 312.923L158.498 279.126C159.085 277.697 157.9 276.171 156.371 276.385Z" fill="#6B8CFF"/>
<path d="M128.744 302.791C130.847 301.206 131.395 298.387 129.969 296.494C128.542 294.601 125.681 294.352 123.578 295.937C121.475 297.522 120.927 300.341 122.353 302.234C123.78 304.126 126.641 304.376 128.744 302.791Z" fill="#2C2770"/>
<path d="M77.7199 303.168L26.3342 295.112L2.97087 289.867L0.707572 301.471C-1.09563 310.716 5.96837 319.316 15.3874 319.343L73.8959 319.51L79.7479 322.872C79.9299 322.977 80.1199 323.067 80.3159 323.142L88.3279 326.196C88.4219 326.232 88.5179 326.26 88.6159 326.281L101.93 329.118C102.622 329.266 103.337 328.993 103.755 328.421C104.51 327.387 103.972 325.917 102.728 325.615L93.5909 323.397H107.797C108.34 323.397 108.84 323.099 109.098 322.621C109.601 321.69 108.992 320.548 107.938 320.447L96.5449 319.352L113.347 317.868C113.995 317.811 114.56 317.401 114.815 316.802C115.292 315.68 114.514 314.423 113.296 314.351L98.1209 313.45L112.258 311.22C113.223 311.068 113.972 310.296 114.095 309.327C114.259 308.039 113.276 306.89 111.978 306.854L93.5909 306.332L94.9769 305.464L97.8379 297.835L89.2709 299.266C88.8249 299.341 88.3859 299.453 87.9589 299.602L77.7199 303.168Z" fill="#FF9330"/>
</svg>
