<svg t="1661313001210" class="icon" viewBox="0 0 1024 1024" version="1.1" xmlns="http://www.w3.org/2000/svg" p-id="8737" width="32" height="32"><path d="M120 230h496c4.4 0 8-3.6 8-8v-56c0-4.4-3.6-8-8-8H120c-4.4 0-8 3.6-8 8v56c0 4.4 3.6 8 8 8zM120 654h496c4.4 0 8-3.6 8-8v-56c0-4.4-3.6-8-8-8H120c-4.4 0-8 3.6-8 8v56c0 4.4 3.6 8 8 8zM904 794H120c-4.4 0-8 3.6-8 8v56c0 4.4 3.6 8 8 8h784c4.4 0 8-3.6 8-8v-56c0-4.4-3.6-8-8-8zM904 370H120c-4.4 0-8 3.6-8 8v56c0 4.4 3.6 8 8 8h784c4.4 0 8-3.6 8-8v-56c0-4.4-3.6-8-8-8z" p-id="8738"></path></svg>