<svg t="1660879851921" class="icon" viewBox="0 0 1024 1024" version="1.1" xmlns="http://www.w3.org/2000/svg" p-id="75137" width="32" height="32"><path d="M471 921.6H225.3c-22.6 0-41-18.4-41-41V757.8c0-112.9 91.9-204.8 204.8-204.8h245.8c43 0 84.3 13.4 119.4 38.7 18.4 13.3 43.9 9.2 57.2-9.2 13.3-18.3 9.1-43.9-9.2-57.2-49.1-35.5-107-54.2-167.4-54.2H389.1C231 471 102.4 599.7 102.4 757.8v122.9c0 67.8 55.1 122.9 122.9 122.9H471c22.6 0 41-18.3 41-41s-18.3-41-41-41zM512 430.1c113.1 0 204.8-91.7 204.8-204.8S625.1 20.5 512 20.5s-204.8 91.7-204.8 204.8S398.9 430.1 512 430.1z m0-327.7c67.8 0 122.9 55.1 122.9 122.9S579.8 348.2 512 348.2 389.1 293 389.1 225.3 444.2 102.4 512 102.4z" p-id="75138"></path><path d="M593.9 778.2c0 22.5 18.4 41 41 41h245.8c22.5 0 41-18.4 41-41 0-22.5-18.4-41-41-41H634.9c-22.5 0.1-41 18.5-41 41zM880.6 921.6H634.9c-22.5 0-41 18.4-41 41 0 22.5 18.4 41 41 41h245.8c22.5 0 41-18.4 41-41-0.1-22.6-18.5-41-41.1-41z" p-id="75139"></path></svg>