<svg t="1660879754485" class="icon" viewBox="0 0 1024 1024" version="1.1" xmlns="http://www.w3.org/2000/svg" p-id="71490" width="32" height="32"><path d="M512 280c-127.926 0-232 104.076-232 232s104.074 232 232 232c23.894 0 47.47-3.626 70.072-10.78 21.062-6.666 32.73-29.144 26.064-50.206-6.664-21.062-29.148-32.732-50.206-26.066A151.98 151.98 0 0 1 512 664c-83.812 0-152-68.186-152-152s68.188-152 152-152 152 68.186 152 152a152.236 152.236 0 0 1-6.09 42.772c-6.202 21.204 5.96 43.418 27.164 49.62 21.208 6.202 43.418-5.96 49.622-27.164A232.29 232.29 0 0 0 744 512c0-127.924-104.074-232-232-232z" p-id="71491"></path><path d="M904 372.002h-20.142c-5.3 0-10.104-3.338-12.184-8.374l-0.356-0.864c-2.154-5.188-1.124-10.962 2.622-14.71l14.246-14.244c46.788-46.788 46.788-122.918 0-169.706L859.902 135.82c-22.666-22.666-52.802-35.148-84.854-35.148-32.056 0-62.19 12.482-84.854 35.148l-14.242 14.242c-3.75 3.75-9.53 4.778-14.694 2.632l-0.754-0.312c-5.166-2.134-8.502-6.936-8.502-12.234V120c0-66.168-53.832-120-120-120h-40c-66.168 0-120 53.832-120 120v20.148c0 5.298-3.336 10.1-8.458 12.214l-0.782 0.324c-5.182 2.156-10.962 1.126-14.708-2.622l-14.244-14.244c-22.664-22.666-52.8-35.148-84.854-35.148S186.768 113.154 164.102 135.82L135.818 164.1c-46.788 46.79-46.788 122.918 0.002 169.708l14.242 14.242c3.748 3.75 4.776 9.524 2.562 14.86l-0.242 0.584c-2.132 5.166-6.938 8.504-12.236 8.504H120c-66.168 0-120 53.832-120 120v40c0 66.168 53.832 120 120 120h20.144c5.3 0 10.102 3.338 12.184 8.374l0.356 0.864c2.154 5.188 1.124 10.962-2.624 14.71l-14.242 14.244c-22.666 22.666-35.148 52.8-35.148 84.854 0 32.052 12.482 62.186 35.146 84.852L164.1 888.18c22.666 22.666 52.802 35.148 84.854 35.148 32.056 0 62.19-12.482 84.854-35.148l14.242-14.242c3.746-3.75 9.528-4.778 14.694-2.632l0.754 0.312c5.166 2.134 8.502 6.936 8.502 12.234V904c0 66.168 53.832 120 120 120h40c66.168 0 120-53.832 120-120v-20.148c0-5.298 3.336-10.1 8.458-12.214l0.782-0.324c5.186-2.152 10.962-1.124 14.708 2.622l14.244 14.244c22.664 22.666 52.8 35.148 84.854 35.148s62.188-12.482 84.854-35.148l28.284-28.284c22.664-22.664 35.146-52.8 35.146-84.852 0-32.054-12.482-62.188-35.146-84.852l-14.244-14.244c-3.75-3.748-4.778-9.522-2.624-14.71l0.302-0.732c2.134-5.166 6.938-8.504 12.236-8.504H904c66.168 0 120-53.832 120-120v-40c0-66.168-53.832-120-120-120zM944 532c0 22.056-17.944 40-40 40h-20.146c-37.81 0-71.636 22.752-86.178 57.966l-0.26 0.628c-14.596 35.198-6.768 75.2 19.952 101.922l14.246 14.244a39.74 39.74 0 0 1 11.714 28.284c0 10.684-4.16 20.728-11.716 28.284l-28.282 28.284a39.752 39.752 0 0 1-28.286 11.716 39.73 39.73 0 0 1-28.284-11.716l-14.246-14.246c-26.736-26.73-66.762-34.552-101.982-19.924l-0.564 0.234C594.754 812.216 572 846.042 572 883.852V904c0 22.056-17.944 40-40 40h-40c-22.056 0-40-17.944-40-40v-20.148c0-37.81-22.754-71.636-58.01-86.194l-0.54-0.224a94.446 94.446 0 0 0-36.274-7.272 92.72 92.72 0 0 0-65.692 27.206l-14.244 14.246a39.74 39.74 0 0 1-28.284 11.714 39.74 39.74 0 0 1-28.284-11.716l-28.284-28.284a39.736 39.736 0 0 1-11.716-28.284c0-10.684 4.16-20.73 11.716-28.284l14.244-14.244c26.722-26.722 34.55-66.724 19.952-101.922l-0.26-0.628C211.78 594.752 177.954 572 140.146 572H120c-22.056 0-40-17.944-40-40v-40c0-22.056 17.944-40 40-40h20.146c37.81 0 71.636-22.752 86.232-58.094l0.186-0.454c14.624-35.208 6.8-75.232-19.934-101.968l-14.242-14.242c-15.598-15.598-15.598-40.974 0-56.57l28.282-28.284a39.752 39.752 0 0 1 28.286-11.716c10.686 0 20.73 4.16 28.284 11.716l14.246 14.246c26.738 26.732 66.764 34.556 101.982 19.924l0.564-0.234C429.246 211.784 452 177.958 452 140.148V120c0-22.056 17.944-40 40-40h40c22.056 0 40 17.944 40 40v20.148c0 37.81 22.754 71.636 58.01 86.192l0.54 0.224c35.202 14.62 75.228 6.798 101.966-19.934l14.244-14.246a39.74 39.74 0 0 1 28.284-11.714 39.74 39.74 0 0 1 28.284 11.716l28.284 28.284c15.598 15.596 15.598 40.972 0.002 56.568l-14.246 14.246c-26.732 26.736-34.556 66.758-19.992 101.82l0.3 0.73C812.22 429.248 846.046 452 883.854 452H904c22.056 0 40 17.944 40 40v40z" p-id="71492"></path></svg><svg t="1660879754485" class="icon" viewBox="0 0 1024 1024" version="1.1" xmlns="http://www.w3.org/2000/svg" p-id="71490" width="32" height="32"><path d="M512 280c-127.926 0-232 104.076-232 232s104.074 232 232 232c23.894 0 47.47-3.626 70.072-10.78 21.062-6.666 32.73-29.144 26.064-50.206-6.664-21.062-29.148-32.732-50.206-26.066A151.98 151.98 0 0 1 512 664c-83.812 0-152-68.186-152-152s68.188-152 152-152 152 68.186 152 152a152.236 152.236 0 0 1-6.09 42.772c-6.202 21.204 5.96 43.418 27.164 49.62 21.208 6.202 43.418-5.96 49.622-27.164A232.29 232.29 0 0 0 744 512c0-127.924-104.074-232-232-232z" p-id="71491"></path><path d="M904 372.002h-20.142c-5.3 0-10.104-3.338-12.184-8.374l-0.356-0.864c-2.154-5.188-1.124-10.962 2.622-14.71l14.246-14.244c46.788-46.788 46.788-122.918 0-169.706L859.902 135.82c-22.666-22.666-52.802-35.148-84.854-35.148-32.056 0-62.19 12.482-84.854 35.148l-14.242 14.242c-3.75 3.75-9.53 4.778-14.694 2.632l-0.754-0.312c-5.166-2.134-8.502-6.936-8.502-12.234V120c0-66.168-53.832-120-120-120h-40c-66.168 0-120 53.832-120 120v20.148c0 5.298-3.336 10.1-8.458 12.214l-0.782 0.324c-5.182 2.156-10.962 1.126-14.708-2.622l-14.244-14.244c-22.664-22.666-52.8-35.148-84.854-35.148S186.768 113.154 164.102 135.82L135.818 164.1c-46.788 46.79-46.788 122.918 0.002 169.708l14.242 14.242c3.748 3.75 4.776 9.524 2.562 14.86l-0.242 0.584c-2.132 5.166-6.938 8.504-12.236 8.504H120c-66.168 0-120 53.832-120 120v40c0 66.168 53.832 120 120 120h20.144c5.3 0 10.102 3.338 12.184 8.374l0.356 0.864c2.154 5.188 1.124 10.962-2.624 14.71l-14.242 14.244c-22.666 22.666-35.148 52.8-35.148 84.854 0 32.052 12.482 62.186 35.146 84.852L164.1 888.18c22.666 22.666 52.802 35.148 84.854 35.148 32.056 0 62.19-12.482 84.854-35.148l14.242-14.242c3.746-3.75 9.528-4.778 14.694-2.632l0.754 0.312c5.166 2.134 8.502 6.936 8.502 12.234V904c0 66.168 53.832 120 120 120h40c66.168 0 120-53.832 120-120v-20.148c0-5.298 3.336-10.1 8.458-12.214l0.782-0.324c5.186-2.152 10.962-1.124 14.708 2.622l14.244 14.244c22.664 22.666 52.8 35.148 84.854 35.148s62.188-12.482 84.854-35.148l28.284-28.284c22.664-22.664 35.146-52.8 35.146-84.852 0-32.054-12.482-62.188-35.146-84.852l-14.244-14.244c-3.75-3.748-4.778-9.522-2.624-14.71l0.302-0.732c2.134-5.166 6.938-8.504 12.236-8.504H904c66.168 0 120-53.832 120-120v-40c0-66.168-53.832-120-120-120zM944 532c0 22.056-17.944 40-40 40h-20.146c-37.81 0-71.636 22.752-86.178 57.966l-0.26 0.628c-14.596 35.198-6.768 75.2 19.952 101.922l14.246 14.244a39.74 39.74 0 0 1 11.714 28.284c0 10.684-4.16 20.728-11.716 28.284l-28.282 28.284a39.752 39.752 0 0 1-28.286 11.716 39.73 39.73 0 0 1-28.284-11.716l-14.246-14.246c-26.736-26.73-66.762-34.552-101.982-19.924l-0.564 0.234C594.754 812.216 572 846.042 572 883.852V904c0 22.056-17.944 40-40 40h-40c-22.056 0-40-17.944-40-40v-20.148c0-37.81-22.754-71.636-58.01-86.194l-0.54-0.224a94.446 94.446 0 0 0-36.274-7.272 92.72 92.72 0 0 0-65.692 27.206l-14.244 14.246a39.74 39.74 0 0 1-28.284 11.714 39.74 39.74 0 0 1-28.284-11.716l-28.284-28.284a39.736 39.736 0 0 1-11.716-28.284c0-10.684 4.16-20.73 11.716-28.284l14.244-14.244c26.722-26.722 34.55-66.724 19.952-101.922l-0.26-0.628C211.78 594.752 177.954 572 140.146 572H120c-22.056 0-40-17.944-40-40v-40c0-22.056 17.944-40 40-40h20.146c37.81 0 71.636-22.752 86.232-58.094l0.186-0.454c14.624-35.208 6.8-75.232-19.934-101.968l-14.242-14.242c-15.598-15.598-15.598-40.974 0-56.57l28.282-28.284a39.752 39.752 0 0 1 28.286-11.716c10.686 0 20.73 4.16 28.284 11.716l14.246 14.246c26.738 26.732 66.764 34.556 101.982 19.924l0.564-0.234C429.246 211.784 452 177.958 452 140.148V120c0-22.056 17.944-40 40-40h40c22.056 0 40 17.944 40 40v20.148c0 37.81 22.754 71.636 58.01 86.192l0.54 0.224c35.202 14.62 75.228 6.798 101.966-19.934l14.244-14.246a39.74 39.74 0 0 1 28.284-11.714 39.74 39.74 0 0 1 28.284 11.716l28.284 28.284c15.598 15.596 15.598 40.972 0.002 56.568l-14.246 14.246c-26.732 26.736-34.556 66.758-19.992 101.82l0.3 0.73C812.22 429.248 846.046 452 883.854 452H904c22.056 0 40 17.944 40 40v40z" p-id="71492"></path></svg>