<svg t="1663746016305" class="icon" viewBox="0 0 1024 1024" version="1.1" xmlns="http://www.w3.org/2000/svg" p-id="1967" width="32" height="32"><path d="M896 768c-12.8 0-21.333333-4.266667-29.866667-12.8L554.666667 443.733333l-140.8 140.8c-17.066667 17.066667-42.666667 17.066667-59.733334 0l-256-256c-17.066667-17.066667-17.066667-42.666667 0-59.733333s42.666667-17.066667 59.733334 0L384 494.933333l140.8-140.8c17.066667-17.066667 42.666667-17.066667 59.733333 0l341.333334 341.333334c17.066667 17.066667 17.066667 42.666667 0 59.733333-8.533333 8.533333-17.066667 12.8-29.866667 12.8z" p-id="1968"></path><path d="M896 768h-298.666667c-25.6 0-42.666667-17.066667-42.666666-42.666667s17.066667-42.666667 42.666666-42.666666h256v-256c0-25.6 17.066667-42.666667 42.666667-42.666667s42.666667 17.066667 42.666667 42.666667v298.666666c0 25.6-17.066667 42.666667-42.666667 42.666667z" p-id="1969"></path></svg>