<svg t="1663745994274" class="icon" viewBox="0 0 1024 1024" version="1.1" xmlns="http://www.w3.org/2000/svg" p-id="1716" width="32" height="32"><path d="M128 768c-12.8 0-21.333333-4.266667-29.866667-12.8-17.066667-17.066667-17.066667-42.666667 0-59.733333l256-256c17.066667-17.066667 42.666667-17.066667 59.733334 0l140.8 140.8 311.466666-311.466667c17.066667-17.066667 42.666667-17.066667 59.733334 0s17.066667 42.666667 0 59.733333l-341.333334 341.333334c-17.066667 17.066667-42.666667 17.066667-59.733333 0L384 529.066667l-226.133333 226.133333c-8.533333 8.533333-17.066667 12.8-29.866667 12.8z" p-id="1717"></path><path d="M896 640c-25.6 0-42.666667-17.066667-42.666667-42.666667V341.333333h-256c-25.6 0-42.666667-17.066667-42.666666-42.666666s17.066667-42.666667 42.666666-42.666667h298.666667c25.6 0 42.666667 17.066667 42.666667 42.666667v298.666666c0 25.6-17.066667 42.666667-42.666667 42.666667z" p-id="1718"></path></svg>