<svg t="1660889093048" class="icon" viewBox="0 0 1024 1024" version="1.1" xmlns="http://www.w3.org/2000/svg" p-id="90438" width="32" height="32"><path d="M960 192v640c0 17.673-14.327 32-32 32H96c-17.673 0-32-14.327-32-32V192c0-17.673 14.327-32 32-32h832c17.673 0 32 14.327 32 32z m-72 32H136a8 8 0 0 0-8 8v560a8 8 0 0 0 8 8h752a8 8 0 0 0 8-8V232a8 8 0 0 0-8-8z m-692 93h288c15.464 0 28 12.536 28 28s-12.536 28-28 28H196c-15.464 0-28-12.536-28-28s12.536-28 28-28z m0 164h222c15.464 0 28 12.536 28 28s-12.536 28-28 28H196c-15.464 0-28-12.536-28-28s12.536-28 28-28z m0 182h182c15.464 0 28 12.536 28 28s-12.536 28-28 28H196c-15.464 0-28-12.536-28-28s12.536-28 28-28z m370.421-131.271c-27.608-23.872-45.079-59.166-45.079-98.544C521.342 361.286 579.589 303 651.44 303c71.852 0 130.099 58.286 130.099 130.185 0 37.248-15.633 70.842-40.69 94.572C816.197 559.979 869 634.819 869 722h-52.477c0-87.609-70.973-158.63-158.523-158.63S499.477 634.392 499.477 722H447c0-83.773 48.755-156.151 119.421-190.271zM651.5 511c42.802 0 77.5-34.698 77.5-77.5S694.302 356 651.5 356 574 390.698 574 433.5s34.698 77.5 77.5 77.5z" p-id="90439"></path></svg>