<svg t="1660811470269" class="icon" viewBox="0 0 1024 1024" version="1.1" xmlns="http://www.w3.org/2000/svg" p-id="22941" width="32" height="32"><path d="M64 833.7v109.8c0 3.3 2.7 6 6 6h52c3.3 0 6-2.7 6-6v-51.8c0-3.3 2.7-6 6-6h756.2c3.3 0 6 2.7 6 6v51.8c0 3.3 2.7 6 6 6h52c3.3 0 6-2.7 6-6V833.7c0-6.6-5.4-12-12-12H76c-6.6 0-12 5.4-12 12zM960.4 628l-0.2-562c0-6.6-5.4-12-12-12L76 53.9c-6.6 0-12 5.4-12 12l0.2 562c0 6.6 5.4 12 12 12h366.2c3.3 0 6 2.7 6 6v41.9c0 3.3-2.7 6-6 6H262c-3.3 0-6 2.7-6 6v51.9c0 3.3 2.7 6 6 6h500.1c3.3 0 6-2.7 6-6v-51.9c0-3.3-2.7-6-6-6h-180c-3.3 0-6-2.7-6-6V646c0-3.3 2.7-6 6-6h366.3c6.6 0 12-5.4 12-12zM134 118h757.4c3.3 0 6 2.7 6 6v372.1c0 3.3-2.7 6-6 6H134c-3.3 0-6-2.7-6-6V124c0-3.3 2.7-6 6-6z" p-id="22942"></path><path d="M442.1 181.8H198c-3.3 0-6 2.7-6 6V240c0 3.3 2.7 6 6 6h244c3.3 0 6-2.7 6-6v-52.2c0.1-3.3-2.6-6-5.9-6zM832.2 367.8V316c0-3.3-2.7-6-6-6H198c-3.3 0-6 2.7-6 6v51.8c0 3.3 2.7 6 6 6h628.1c3.4 0 6.1-2.7 6.1-6zM448.4 639.9h1.4v0.3h-1.4z" p-id="22943"></path></svg>